<svg xmlns="http://www.w3.org/2000/svg" xmlns:xlink="http://www.w3.org/1999/xlink" viewBox="0 0 360.47 776.68"><defs><style>.cls-1{fill:url(#Dégradé_sans_nom_23);}.cls-2{fill:url(#Dégradé_sans_nom_23-2);}.cls-3{fill:url(#Dégradé_sans_nom_75);}.cls-4{fill:#dcdbdd;}.cls-5{fill:none;stroke:#5a196e;stroke-miterlimit:10;stroke-width:5px;}.cls-6{fill:url(#Dégradé_sans_nom_23-3);}.cls-7{fill:#5a196e;}.cls-8{fill:url(#Dégradé_sans_nom_17);}.cls-9{fill:url(#Dégradé_sans_nom_13);}.cls-10{fill:#bf0dd7;}.cls-11{fill:url(#Dégradé_sans_nom_23-4);}.cls-12{fill:url(#Dégradé_sans_nom_23-5);}.cls-13{fill:url(#Dégradé_sans_nom_23-6);}.cls-14{fill:url(#Dégradé_sans_nom_23-7);}.cls-15{fill:url(#Dégradé_sans_nom_23-8);}.cls-16{fill:url(#Dégradé_sans_nom_23-9);}.cls-17{fill:url(#Dégradé_sans_nom_23-10);}.cls-18{fill:url(#Dégradé_sans_nom_23-11);}.cls-19{fill:url(#Dégradé_sans_nom_23-12);}.cls-20{fill:#fa3955;}.cls-21{fill:url(#Dégradé_sans_nom_23-13);}</style><linearGradient id="Dégradé_sans_nom_23" x1="255" y1="626.22" x2="360.47" y2="626.22" gradientUnits="userSpaceOnUse"><stop offset="0" stop-color="#f11b93"/><stop offset="1" stop-color="#bf0dd7"/></linearGradient><linearGradient id="Dégradé_sans_nom_23-2" x1="0" y1="626.22" x2="105.47" y2="626.22" xlink:href="#Dégradé_sans_nom_23"/><linearGradient id="Dégradé_sans_nom_75" x1="256" y1="535.9" x2="256" y2="535.9" gradientUnits="userSpaceOnUse"><stop offset="0" stop-color="#3b0063"/><stop offset="1" stop-color="#1b1464"/></linearGradient><linearGradient id="Dégradé_sans_nom_23-3" x1="99.78" y1="752.71" x2="256" y2="752.71" xlink:href="#Dégradé_sans_nom_23"/><linearGradient id="Dégradé_sans_nom_17" x1="184.95" y1="21.5" x2="148.19" y2="21.5" gradientUnits="userSpaceOnUse"><stop offset="0" stop-color="#fff"/><stop offset="0" stop-color="#bf0dd7"/><stop offset="1" stop-color="#f11b93"/></linearGradient><linearGradient id="Dégradé_sans_nom_13" x1="216.79" y1="22.83" x2="184.03" y2="22.83" gradientUnits="userSpaceOnUse"><stop offset="0" stop-color="#fff"/><stop offset="0" stop-color="#f11b93"/><stop offset="1" stop-color="#bf0dd7"/></linearGradient><linearGradient id="Dégradé_sans_nom_23-4" x1="118.07" y1="720.68" x2="139.7" y2="720.68" xlink:href="#Dégradé_sans_nom_23"/><linearGradient id="Dégradé_sans_nom_23-5" x1="217.07" y1="720.68" x2="238.7" y2="720.68" xlink:href="#Dégradé_sans_nom_23"/><linearGradient id="Dégradé_sans_nom_23-6" x1="113.39" y1="635.64" x2="129.79" y2="635.64" xlink:href="#Dégradé_sans_nom_23"/><linearGradient id="Dégradé_sans_nom_23-7" x1="134" y1="635.6" x2="150.19" y2="635.6" xlink:href="#Dégradé_sans_nom_23"/><linearGradient id="Dégradé_sans_nom_23-8" x1="150.99" y1="635.76" x2="166.52" y2="635.76" xlink:href="#Dégradé_sans_nom_23"/><linearGradient id="Dégradé_sans_nom_23-9" x1="191.2" y1="631.16" x2="206.33" y2="631.16" xlink:href="#Dégradé_sans_nom_23"/><linearGradient id="Dégradé_sans_nom_23-10" x1="191" y1="637.87" x2="206.35" y2="637.87" xlink:href="#Dégradé_sans_nom_23"/><linearGradient id="Dégradé_sans_nom_23-11" x1="210.68" y1="632.23" x2="219.61" y2="632.23" xlink:href="#Dégradé_sans_nom_23"/><linearGradient id="Dégradé_sans_nom_23-12" x1="220.56" y1="638.45" x2="231" y2="638.45" xlink:href="#Dégradé_sans_nom_23"/><linearGradient id="Dégradé_sans_nom_23-13" x1="170.43" y1="635.59" x2="186.44" y2="635.59" xlink:href="#Dégradé_sans_nom_23"/></defs><title>Fichier 3</title><g id="Calque_2" data-name="Calque 2"><g id="Calque_6" data-name="Calque 6"><path class="cls-1" d="M255,540.33s105.47,129.6,105.47,171.78c-45.49,0-104.47-.24-104.47-.24l-1-171.55"/><path class="cls-2" d="M105.47,540.33S0,669.93,0,712.11c45.49,0,104.47-.24,104.47-.24l1-171.55"/><path class="cls-3" d="M256,535.9"/><path class="cls-4" d="M100,734.34l8.82-523S136,1.79,184.84.12"/><path class="cls-4" d="M100.09,734.06l9-503.58S150.07-1.66,184,.13s72,179.17,72,233V743.87s-46.36,37.49-70.44,22.72C178,775,170.27,780.31,162,766.07c-15.82-3.16-36.22-2.7-50.12-15.22S100.09,734.06,100.09,734.06Z"/><rect class="cls-5" x="134.5" y="260.04" width="50.34" height="70.84"/><rect class="cls-5" x="203.16" y="248.74" width="25.17" height="35.42"/><path class="cls-6" d="M99.78,728.73s8.64,28.05,59.24,32c6.28,0,6.57,8.27,10.76,10.07s12.07-6.11,14.89-6.11S204.51,775.49,256,738.8v5.59s-49.35,41.08-70.63,23.5c-9.77,8.61-13.87,14.69-23.38-.55-19.28-3-50-4.68-62-30.34v-8.13"/><rect class="cls-7" x="144.38" y="82.26" width="72.8" height="15.92"/><rect class="cls-7" x="130.32" y="157.18" width="13.96" height="9.76"/><rect class="cls-7" x="148.51" y="157.18" width="13.96" height="9.76"/><rect class="cls-7" x="166.84" y="157.18" width="13.96" height="9.76"/><rect class="cls-7" x="184.2" y="157.18" width="13.96" height="9.76"/><rect class="cls-7" x="201.25" y="157.18" width="13.96" height="9.76"/><rect class="cls-7" x="218.55" y="157.18" width="13.96" height="9.76"/><rect class="cls-7" x="130.32" y="184.03" width="13.96" height="9.76"/><rect class="cls-7" x="148.51" y="184.03" width="13.96" height="9.76"/><rect class="cls-7" x="166.84" y="184.03" width="13.96" height="9.76"/><rect class="cls-7" x="184.2" y="184.03" width="13.96" height="9.76"/><rect class="cls-7" x="201.25" y="184.03" width="13.96" height="9.76"/><rect class="cls-7" x="218.55" y="184.03" width="13.96" height="9.76"/><rect class="cls-7" x="130.31" y="210.87" width="13.96" height="9.76"/><rect class="cls-7" x="148.5" y="210.87" width="13.96" height="9.76"/><rect class="cls-7" x="166.82" y="210.87" width="13.96" height="9.76"/><rect class="cls-7" x="184.18" y="210.87" width="13.96" height="9.76"/><rect class="cls-7" x="201.23" y="210.87" width="13.96" height="9.76"/><rect class="cls-7" x="218.53" y="210.87" width="13.96" height="9.76"/><rect class="cls-7" x="138.19" y="115.39" width="85.21" height="15.92"/><path class="cls-8" d="M185,4.84s-17.12-3-34.71,38h-2S162.38,2,184,.13Z"/><path class="cls-9" d="M184,4.86S201.35,3.79,214.75,45l2,.21S206.77,4.48,185.47.44Z"/><path class="cls-10" d="M180.27.84a8.16,8.16,0,0,1,7.51.19,19.6,19.6,0,0,1-.48,4l-6.43-1L180.27.84"/><path class="cls-11" d="M138.19,761.24s6.72-81.12-8.14-81.12-11.7,72.79-11.7,72.79"/><path class="cls-12" d="M218.59,761.24s-6.72-81.12,8.14-81.12,11.7,72.79,11.7,72.79"/><path class="cls-13" d="M129.12,632s.29-.33.22-.48-.51-1.07-2.64-1.43-10.61,0-10.61,0-1.84.33-2.09,1.58a14.37,14.37,0,0,0,0,3.45,2.06,2.06,0,0,0,1.58,1.29c1.14.11,10.87.15,10.87.15a.45.45,0,0,1,.26.4c0,.33,0,1.91,0,1.91s-.18.26-.37.29-12.49,0-12.49,0-.48,0-.48.22a2,2,0,0,0,1.74,1.69,112.64,112.64,0,0,0,13.08,0,1.91,1.91,0,0,0,1.47-1.32,13.77,13.77,0,0,0,0-3.71c-.18-.48-.18-1.54-2.75-1.58s-9.7,0-9.7,0l-.26-.32-.11-1.7.4-.4Z"/><path class="cls-14" d="M148,629.87H134.72l-.72.77v10.67h3.48l0-4,.53-.45h10.18a2,2,0,0,0,1.73-1.21,25.36,25.36,0,0,0,.25-3.92A2.35,2.35,0,0,0,148,629.87Zm-1.11,4.6a.81.81,0,0,1-.68.4H138l0-.28v-2.32l-.06-.4h8.26a1.12,1.12,0,0,1,.65.91C146.88,633.43,146.85,634.47,146.85,634.47Z"/><polygon class="cls-15" points="156.42 632.01 158.09 630.15 166.52 641.32 162.71 641.37 161.18 639.12 160.51 638.84 150.99 638.79 152.66 636.84 158.94 636.88 159.23 636.5 156.42 632.01"/><rect class="cls-16" x="191.2" y="630.14" width="15.13" height="2.04"/><polygon class="cls-17" points="201 633.88 191 633.88 191 641.88 206.35 641.88 206.33 639.63 195.13 639.54 195 639.17 195 636.05 194.94 635.88 201 635.88 201 633.88"/><polygon class="cls-18" points="210.69 630.54 210.91 629.88 215.97 629.88 219.61 632.66 216.18 634.59 210.69 630.54"/><polygon class="cls-19" points="220.6 637.6 223.5 635.53 231 640.74 231 641.32 225.8 641.37 220.56 637.74 220.6 637.6"/><path class="cls-20" d="M210.68,641.32l-.32-.75s16.46-15.49,44.64-17c-8.66.92-29.16,6.27-39.85,17.77Z"/><path class="cls-21" d="M186.42,632s.3-1.14-1.72-2.14h-12s-2.1.34-2.22,2.17,0,7.66,0,7.66.24,1.49,2.32,1.49,11.22.11,11.22.11,2.41-.16,2.31-2.09l-12,0-.29-.34v-6.53l.28-.32Z"/><rect class="cls-4" x="150.09" y="43.78" width="15.15" height="2.12" transform="translate(29.95 -57.91) rotate(22.94)"/><rect class="cls-4" x="150.78" y="42.16" width="15.15" height="2.12"/></g></g></svg>