<?xml version="1.0" encoding="utf-8"?>
<!-- Generator: Adobe Illustrator 22.0.1, SVG Export Plug-In . SVG Version: 6.00 Build 0)  -->
<svg version="1.1" id="Calque_1" xmlns="http://www.w3.org/2000/svg" xmlns:xlink="http://www.w3.org/1999/xlink" x="0px" y="0px"
	 viewBox="0 0 640 300" style="enable-background:new 0 0 640 300;" xml:space="preserve">
<style type="text/css">
	.st0{display:none;}
	.st1{display:inline;fill:url(#SVGID_1_);}
	.st2{fill:none;}
	.st3{fill:url(#SVGID_2_);}
	.st4{fill:#191919;}
	.st5{fill:url(#SVGID_3_);}
	.st6{fill:#FFFFFF;}
	.st7{fill:url(#SVGID_4_);}
	.st8{fill:#0F0F0F;}
	.st9{fill:url(#SVGID_5_);}
	.st10{fill:#212121;}
	.st11{fill:url(#SVGID_6_);}
	.st12{fill:url(#SVGID_7_);}
	.st13{fill:url(#SVGID_8_);}
	.st14{fill:url(#SVGID_9_);}
	.st15{fill:url(#SVGID_10_);}
	.st16{fill:url(#SVGID_11_);}
	.st17{fill:none;stroke:#000000;stroke-width:4.5094;stroke-miterlimit:10;}
	.st18{fill:none;stroke:#000000;stroke-width:2.2547;stroke-miterlimit:10;}
	.st19{fill:none;stroke:#000000;stroke-width:1.8037;stroke-miterlimit:10;}
	.st20{fill:none;stroke:#000000;stroke-width:2.7056;stroke-miterlimit:10;}
</style>
<g id="Décor" class="st0">
	
		<linearGradient id="SVGID_1_" gradientUnits="userSpaceOnUse" x1="-9.7" y1="152.05" x2="646.3" y2="152.05" gradientTransform="matrix(1 0 0 -1 0 302)">
		<stop  offset="0" style="stop-color:#3B0063"/>
		<stop  offset="1" style="stop-color:#1B1464"/>
	</linearGradient>
	<rect x="-9.7" y="-95.7" class="st1" width="656" height="491.3"/>
</g>
<g id="Calque_1_1_" class="st0">
</g>
<g id="fond_train">
	<path class="st2" d="M180.6-12.3"/>
</g>
<g>
	<g id="Calque_3">
		
			<linearGradient id="SVGID_2_" gradientUnits="userSpaceOnUse" x1="113.8952" y1="95.9434" x2="526.1048" y2="95.9434" gradientTransform="matrix(1 0 0 -1 0 302)">
			<stop  offset="0" style="stop-color:#F11B93"/>
			<stop  offset="1" style="stop-color:#BF0DD7"/>
		</linearGradient>
		<path class="st3" d="M113.9,171l11.5,92.1l350.7,1.1l50-116.1h-91.3c0,0,2.7,22.2-30.1,21.9C372,169.5,113.9,171,113.9,171z"/>
		<polygon class="st4" points="120.1,220.2 121.8,234.2 488.9,234.2 495,220.2 		"/>
	</g>
	<g id="Calque_4">
		
			<linearGradient id="SVGID_3_" gradientUnits="userSpaceOnUse" x1="147.5935" y1="158.5159" x2="419.0533" y2="158.5159" gradientTransform="matrix(1 0 0 -1 0 302)">
			<stop  offset="0" style="stop-color:#BF0DD7"/>
			<stop  offset="0" style="stop-color:#FA3955"/>
			<stop  offset="1" style="stop-color:#F11B93"/>
		</linearGradient>
		<polygon class="st5" points="147.6,170.9 159.6,130.7 164,116 419.1,116 419.1,130.9 398.3,130.6 408.2,169.8 		"/>
		<polyline class="st6" points="159.5,130.7 419.1,130.9 419.1,116 163.8,116 159.6,130.7 		"/>
		
			<linearGradient id="SVGID_4_" gradientUnits="userSpaceOnUse" x1="178.5459" y1="155.0451" x2="333.8957" y2="155.0451" gradientTransform="matrix(1 0 0 -1 0 302)">
			<stop  offset="0" style="stop-color:#BF0DD7"/>
			<stop  offset="0" style="stop-color:#FFD45A"/>
			<stop  offset="1" style="stop-color:#FA3955"/>
		</linearGradient>
		<path class="st7" d="M186,140.5c0,0-16.7,5.7,0,12.9c16.4,0,142,0,142,0s13.4-5,0-12.9C309.3,140.4,186,140.5,186,140.5z"/>
		<circle class="st8" cx="346.5" cy="146.9" r="6.5"/>
		
			<linearGradient id="SVGID_5_" gradientUnits="userSpaceOnUse" x1="361.6622" y1="155.2929" x2="393.5925" y2="155.2929" gradientTransform="matrix(1 0 0 -1 0 302)">
			<stop  offset="0" style="stop-color:#BF0DD7"/>
			<stop  offset="0" style="stop-color:#FFD45A"/>
			<stop  offset="1" style="stop-color:#FA3955"/>
		</linearGradient>
		<path class="st9" d="M363.2,140.9c0,0-3.4,5.1,0,11.7c3.4,0,29.2,0,29.2,0s2.7-4.6,0-11.6C388.5,140.8,363.2,140.9,363.2,140.9z"
			/>
	</g>
	<g id="Calque_6_1_">
		<rect x="188.3" y="35.9" class="st10" width="33.8" height="80.1"/>
		
			<linearGradient id="SVGID_6_" gradientUnits="userSpaceOnUse" x1="188.2551" y1="253.8079" x2="222.0932" y2="253.8079" gradientTransform="matrix(1 0 0 -1 0 302)">
			<stop  offset="0" style="stop-color:#F11B93"/>
			<stop  offset="1" style="stop-color:#BF0DD7"/>
		</linearGradient>
		<rect x="188.3" y="35.9" class="st11" width="33.8" height="24.6"/>
		<rect x="249.5" y="35.9" class="st10" width="33.8" height="80.1"/>
		
			<linearGradient id="SVGID_7_" gradientUnits="userSpaceOnUse" x1="249.4993" y1="253.8079" x2="283.3374" y2="253.8079" gradientTransform="matrix(1 0 0 -1 0 302)">
			<stop  offset="0" style="stop-color:#F11B93"/>
			<stop  offset="1" style="stop-color:#BF0DD7"/>
		</linearGradient>
		<rect x="249.5" y="35.9" class="st12" width="33.8" height="24.6"/>
		<rect x="310.7" y="35.9" class="st10" width="33.8" height="80.1"/>
		
			<linearGradient id="SVGID_8_" gradientUnits="userSpaceOnUse" x1="310.6595" y1="253.8079" x2="344.4977" y2="253.8079" gradientTransform="matrix(1 0 0 -1 0 302)">
			<stop  offset="0" style="stop-color:#F11B93"/>
			<stop  offset="1" style="stop-color:#BF0DD7"/>
		</linearGradient>
		<rect x="310.7" y="35.9" class="st13" width="33.8" height="24.6"/>
		
			<linearGradient id="SVGID_9_" gradientUnits="userSpaceOnUse" x1="203.6552" y1="1827659.625" x2="250.3014" y2="1827659.625" gradientTransform="matrix(0 1 -1.332831e-04 0 436.5075 -138.7398)">
			<stop  offset="0" style="stop-color:#F11B93"/>
			<stop  offset="1" style="stop-color:#BF0DD7"/>
		</linearGradient>
		<polygon class="st14" points="194.4,111.6 194.4,64.9 191.4,64.9 191.4,111.6 		"/>
		
			<linearGradient id="SVGID_10_" gradientUnits="userSpaceOnUse" x1="203.6552" y1="1368889.625" x2="250.3014" y2="1368889.625" gradientTransform="matrix(0 1 -1.332831e-04 0 436.5075 -138.7398)">
			<stop  offset="0" style="stop-color:#F11B93"/>
			<stop  offset="1" style="stop-color:#BF0DD7"/>
		</linearGradient>
		<polygon class="st15" points="255.6,111.6 255.6,64.9 252.5,64.9 252.5,111.6 		"/>
		
			<linearGradient id="SVGID_11_" gradientUnits="userSpaceOnUse" x1="203.6552" y1="909595" x2="250.3014" y2="909595" gradientTransform="matrix(0 1 -1.332831e-04 0 436.5075 -138.7398)">
			<stop  offset="0" style="stop-color:#F11B93"/>
			<stop  offset="1" style="stop-color:#BF0DD7"/>
		</linearGradient>
		<polygon class="st16" points="316.8,111.6 316.8,64.9 313.8,64.9 313.8,111.6 		"/>
	</g>
	<g id="Calque_5">
		<line class="st17" x1="125.4" y1="263.6" x2="476.1" y2="263.6"/>
		<line class="st17" x1="476.1" y1="263.6" x2="526.1" y2="148"/>
		<line class="st18" x1="526.1" y1="148" x2="434.8" y2="148"/>
		<line class="st19" x1="147.6" y1="170.9" x2="164" y2="116"/>
		<line class="st20" x1="419.1" y1="116" x2="164" y2="116"/>
	</g>
</g>
</svg>
