<?xml version="1.0" encoding="utf-8"?>
<!-- Generator: Adobe Illustrator 22.0.1, SVG Export Plug-In . SVG Version: 6.00 Build 0)  -->
<svg version="1.1" xmlns="http://www.w3.org/2000/svg" xmlns:xlink="http://www.w3.org/1999/xlink" x="0px" y="0px"
	 viewBox="0 0 1500 1250" style="enable-background:new 0 0 1500 1250;" xml:space="preserve">
<style type="text/css">
	.st0{display:none;}
	.st1{display:inline;fill:url(#SVGID_1_);}
	.st2{display:inline;fill:url(#SVGID_2_);}
	.st3{display:inline;fill:none;stroke:#191919;stroke-width:3;stroke-miterlimit:10;}
	.st4{display:inline;fill:#126CD8;}
	.st5{display:inline;fill:url(#SVGID_3_);}
	.st6{display:inline;fill:url(#SVGID_4_);}
	.st7{display:inline;opacity:0.36;fill:none;stroke:#C4C4C4;stroke-width:3;stroke-miterlimit:10;}
	.st8{display:inline;fill:url(#SVGID_5_);}
	.st9{display:inline;fill:url(#SVGID_6_);}
	.st10{display:inline;fill:url(#SVGID_7_);}
	.st11{display:inline;fill:url(#SVGID_8_);}
	.st12{fill:url(#SVGID_9_);}
	.st13{fill:#191919;}
	.st14{fill:url(#SVGID_10_);}
	.st15{fill:#FFFFFF;}
	.st16{fill:url(#SVGID_11_);}
	.st17{fill:#0F0F0F;}
	.st18{fill:url(#SVGID_12_);}
	.st19{fill:#212121;}
	.st20{fill:url(#SVGID_13_);}
	.st21{fill:url(#SVGID_14_);}
	.st22{fill:url(#SVGID_15_);}
	.st23{fill:url(#SVGID_16_);}
	.st24{fill:url(#SVGID_17_);}
	.st25{fill:url(#SVGID_18_);}
	.st26{fill:#0C0B0B;stroke:#000000;stroke-width:16.1248;stroke-miterlimit:10;}
	.st27{fill:none;stroke:#000000;stroke-width:16.1248;stroke-miterlimit:10;}
	.st28{fill:#110E0E;stroke:#000000;stroke-width:8.0624;stroke-miterlimit:10;}
	.st29{fill:none;stroke:#000000;stroke-width:6.4499;stroke-miterlimit:10;}
	.st30{fill:none;stroke:#000000;stroke-width:9.6749;stroke-miterlimit:10;}
</style>
<g id="Calque_1" class="st0">
	<linearGradient id="SVGID_1_" gradientUnits="userSpaceOnUse" x1="0" y1="625" x2="1500" y2="625">
		<stop  offset="0" style="stop-color:#3B0063"/>
		<stop  offset="1" style="stop-color:#1B1464"/>
	</linearGradient>
	<rect class="st1" width="1500" height="1250"/>
	<linearGradient id="SVGID_2_" gradientUnits="userSpaceOnUse" x1="1404.4324" y1="39.2904" x2="1404.4324" y2="39.2904">
		<stop  offset="0" style="stop-color:#3B0063"/>
		<stop  offset="1" style="stop-color:#1B1464"/>
	</linearGradient>
	<path class="st2" d="M1404.4,39.3"/>
</g>
<g id="Calque_7" class="st0">
	<path class="st3" d="M76.5,1014.1c0,0,60.3-63.4,135.6-55.4s121.2,72.2,202.9,55.4c81.6-16.7,101-53.7,182-56.1
		c80.9-2.5,150.7,58.9,181.4,58.9c30.7,0,53-75.3,92-72.5"/>
	<path class="st3" d="M655.5,938.1c0,0,60.3-63.4,135.6-55.4s121.2,72.2,202.9,55.4c81.6-16.7,101-53.7,182-56.1
		c80.9-2.5,150.7,58.9,181.4,58.9c30.7,0,53-75.3,92-72.5"/>
	<path class="st3" d="M76.5,829.1c0,0,60.3-63.4,135.6-55.4s121.2,72.2,202.9,55.4c81.6-16.7,101-53.7,182-56.1
		c80.9-2.5,150.7,58.9,181.4,58.9c30.7,0,53-75.3,92-72.5"/>
</g>
<g id="Calque_9" class="st0">
	<rect y="782.4" class="st4" width="1500" height="199.1"/>
	<linearGradient id="SVGID_3_" gradientUnits="userSpaceOnUse" x1="1133.7535" y1="903.897" x2="1236.9976" y2="903.897">
		<stop  offset="0" style="stop-color:#F10093"/>
		<stop  offset="1" style="stop-color:#BF004A"/>
	</linearGradient>
	<path class="st5" d="M1136.4,894c-8.9,15.4,5.8,32.2,32.9,37.7c27.1,5.4,56.2-2.6,65.2-18c8.9-15.4-5.8-32.2-32.9-37.7
		C1174.4,870.6,1145.3,878.7,1136.4,894z M1208.2,908.4c-4.1,7-17.4,10.7-29.7,8.2c-12.3-2.5-19.1-10.2-15-17.2s17.4-10.7,29.7-8.2
		C1205.6,893.7,1212.3,901.4,1208.2,908.4z"/>
	<linearGradient id="SVGID_4_" gradientUnits="userSpaceOnUse" x1="1133.6396" y1="895.9084" x2="1236.8838" y2="895.9084">
		<stop  offset="0" style="stop-color:#F11B93"/>
		<stop  offset="1" style="stop-color:#BF0DD7"/>
	</linearGradient>
	<path class="st6" d="M1136.2,886.1c-8.9,15.4,5.8,32.2,32.9,37.7c27.1,5.4,56.2-2.6,65.2-18c8.9-15.4-5.8-32.2-32.9-37.7
		C1174.3,862.6,1145.2,870.7,1136.2,886.1z M1208.1,900.4c-4.1,7-17.4,10.7-29.7,8.2c-12.3-2.5-19.1-10.2-15-17.2
		c4.1-7,17.4-10.7,29.7-8.2C1205.5,885.7,1212.2,893.4,1208.1,900.4z"/>
	<path class="st7" d="M1190.2,916.9c0,0,23.6,0.9,33.5-14.2"/>
	<linearGradient id="SVGID_5_" gradientUnits="userSpaceOnUse" x1="234.1883" y1="840.8236" x2="337.4324" y2="840.8236">
		<stop  offset="0" style="stop-color:#F10093"/>
		<stop  offset="1" style="stop-color:#BF004A"/>
	</linearGradient>
	<path class="st8" d="M236.8,831c-8.9,15.4,5.8,32.2,32.9,37.7c27.1,5.4,56.2-2.6,65.2-18c8.9-15.4-5.8-32.2-32.9-37.7
		C274.9,807.6,245.7,815.6,236.8,831z M308.7,845.3c-4.1,7-17.4,10.7-29.7,8.2s-19.1-10.2-15-17.2c4.1-7,17.4-10.7,29.7-8.2
		C306,830.6,312.7,838.3,308.7,845.3z"/>
	<linearGradient id="SVGID_6_" gradientUnits="userSpaceOnUse" x1="234.0745" y1="832.835" x2="337.3186" y2="832.835">
		<stop  offset="0" style="stop-color:#F11B93"/>
		<stop  offset="1" style="stop-color:#BF0DD7"/>
	</linearGradient>
	<path class="st9" d="M236.7,823c-8.9,15.4,5.8,32.2,32.9,37.7c27.1,5.4,56.2-2.6,65.2-18c8.9-15.4-5.8-32.2-32.9-37.7
		C274.8,799.6,245.6,807.6,236.7,823z M308.6,837.3c-4.1,7-17.4,10.7-29.7,8.2c-12.3-2.5-19.1-10.2-15-17.2
		c4.1-7,17.4-10.7,29.7-8.2C305.9,822.6,312.6,830.3,308.6,837.3z"/>
	<path class="st7" d="M290.7,853.8c0,0,23.6,0.9,33.5-14.2"/>
	<linearGradient id="SVGID_7_" gradientUnits="userSpaceOnUse" x1="612.8596" y1="917.7695" x2="716.1037" y2="917.7695">
		<stop  offset="0" style="stop-color:#F10093"/>
		<stop  offset="1" style="stop-color:#BF004A"/>
	</linearGradient>
	<path class="st10" d="M615.5,907.9c-8.9,15.4,5.8,32.2,32.9,37.7c27.1,5.4,56.2-2.6,65.2-18c8.9-15.4-5.8-32.2-32.9-37.7
		C653.5,884.5,624.4,892.5,615.5,907.9z M687.3,922.3c-4.1,7-17.4,10.7-29.7,8.2s-19.1-10.2-15-17.2c4.1-7,17.4-10.7,29.7-8.2
		C684.7,907.6,691.4,915.3,687.3,922.3z"/>
	<linearGradient id="SVGID_8_" gradientUnits="userSpaceOnUse" x1="612.7458" y1="909.7809" x2="715.9899" y2="909.7809">
		<stop  offset="0" style="stop-color:#F11B93"/>
		<stop  offset="1" style="stop-color:#BF0DD7"/>
	</linearGradient>
	<path class="st11" d="M615.3,899.9c-8.9,15.4,5.8,32.2,32.9,37.7c27.1,5.4,56.2-2.6,65.2-18c8.9-15.4-5.8-32.2-32.9-37.7
		C653.4,876.5,624.3,884.6,615.3,899.9z M687.2,914.3c-4.1,7-17.4,10.7-29.7,8.2c-12.3-2.5-19.1-10.2-15-17.2
		c4.1-7,17.4-10.7,29.7-8.2C684.6,899.6,691.3,907.3,687.2,914.3z"/>
	<path class="st7" d="M669.3,930.8c0,0,23.6,0.9,33.5-14.2"/>
</g>
<g id="Calque_3">
	<linearGradient id="SVGID_9_" gradientUnits="userSpaceOnUse" x1="26" y1="797.8058" x2="1500" y2="797.8058">
		<stop  offset="0" style="stop-color:#F11B93"/>
		<stop  offset="1" style="stop-color:#BF0DD7"/>
	</linearGradient>
	<path class="st12" d="M26,672.3l41.1,329.2l1254.2,3.8L1500,590.3h-326.4c0,0,9.5,79.5-107.6,78.2C948.9,667.2,26,672.3,26,672.3z"
		/>
	<polygon class="st13" points="48.2,848.3 54.3,898.3 1367.1,898.3 1388.6,848.3 	"/>
</g>
<g id="Calque_4">
	<linearGradient id="SVGID_10_" gradientUnits="userSpaceOnUse" x1="146.486" y1="574.0362" x2="1117.1985" y2="574.0362">
		<stop  offset="0" style="stop-color:#BF0DD7"/>
		<stop  offset="0" style="stop-color:#FA3955"/>
		<stop  offset="1" style="stop-color:#F11B93"/>
	</linearGradient>
	<polygon class="st14" points="146.5,672.2 189.6,528.2 205.3,475.9 1117.2,475.9 1117.2,529.1 1042.9,527.8 1078.5,668.3 	"/>
	<polyline class="st15" points="189.2,528.2 1117.2,529.1 1117.2,475.9 204.5,475.9 189.6,528.2 	"/>
	<linearGradient id="SVGID_11_" gradientUnits="userSpaceOnUse" x1="257.2441" y1="586.4572" x2="812.7464" y2="586.4572">
		<stop  offset="0" style="stop-color:#BF0DD7"/>
		<stop  offset="0" style="stop-color:#FFD45A"/>
		<stop  offset="1" style="stop-color:#FA3955"/>
	</linearGradient>
	<path class="st16" d="M283.7,563.4c0,0-59.6,20.5-0.1,46.3c58.7,0,507.8,0,507.8,0s47.9-18,0-46.3
		C724.9,563,283.7,563.4,283.7,563.4z"/>
	<circle class="st17" cx="857.9" cy="586.2" r="23.2"/>
	<linearGradient id="SVGID_12_" gradientUnits="userSpaceOnUse" x1="911.9107" y1="585.5602" x2="1026.1155" y2="585.5602">
		<stop  offset="0" style="stop-color:#BF0DD7"/>
		<stop  offset="0" style="stop-color:#FFD45A"/>
		<stop  offset="1" style="stop-color:#FA3955"/>
	</linearGradient>
	<path class="st18" d="M917.4,564.7c0,0-12.2,18.3,0,41.8c12.1,0,104.4,0,104.4,0s9.8-16.3,0-41.6
		C1008.1,564.5,917.4,564.7,917.4,564.7z"/>
</g>
<g id="Calque_6">
	<rect x="291.9" y="189.4" class="st19" width="121" height="286.4"/>
	<linearGradient id="SVGID_13_" gradientUnits="userSpaceOnUse" x1="291.9484" y1="233.2906" x2="412.9299" y2="233.2906">
		<stop  offset="0" style="stop-color:#F11B93"/>
		<stop  offset="1" style="stop-color:#BF0DD7"/>
	</linearGradient>
	<rect x="291.9" y="189.4" class="st20" width="121" height="87.8"/>
	<rect x="510.9" y="189.4" class="st19" width="121" height="286.4"/>
	<linearGradient id="SVGID_14_" gradientUnits="userSpaceOnUse" x1="510.8607" y1="233.2906" x2="631.8422" y2="233.2906">
		<stop  offset="0" style="stop-color:#F11B93"/>
		<stop  offset="1" style="stop-color:#BF0DD7"/>
	</linearGradient>
	<rect x="510.9" y="189.4" class="st21" width="121" height="87.8"/>
	<rect x="729.6" y="189.4" class="st19" width="121" height="286.4"/>
	<linearGradient id="SVGID_15_" gradientUnits="userSpaceOnUse" x1="729.5806" y1="233.2906" x2="850.5621" y2="233.2906">
		<stop  offset="0" style="stop-color:#F11B93"/>
		<stop  offset="1" style="stop-color:#BF0DD7"/>
	</linearGradient>
	<rect x="729.6" y="189.4" class="st22" width="121" height="87.8"/>
	
		<linearGradient id="SVGID_16_" gradientUnits="userSpaceOnUse" x1="361.8536" y1="-1552305.625" x2="528.6469" y2="-1552305.625" gradientTransform="matrix(0 1 1.332831e-04 0 515.4474 -68.7398)">
		<stop  offset="0" style="stop-color:#F11B93"/>
		<stop  offset="1" style="stop-color:#BF0DD7"/>
	</linearGradient>
	<polygon class="st23" points="313.9,459.9 313.9,293.1 303.2,293.1 303.2,459.9 	"/>
	
		<linearGradient id="SVGID_17_" gradientUnits="userSpaceOnUse" x1="361.8536" y1="87873.4531" x2="528.6469" y2="87873.4531" gradientTransform="matrix(0 1 1.332831e-04 0 515.4474 -68.7398)">
		<stop  offset="0" style="stop-color:#F11B93"/>
		<stop  offset="1" style="stop-color:#BF0DD7"/>
	</linearGradient>
	<polygon class="st24" points="532.6,459.9 532.6,293.1 521.8,293.1 521.8,459.9 	"/>
	
		<linearGradient id="SVGID_18_" gradientUnits="userSpaceOnUse" x1="361.8536" y1="1730807" x2="528.6469" y2="1730807" gradientTransform="matrix(0 1 1.332831e-04 0 515.4474 -68.7398)">
		<stop  offset="0" style="stop-color:#F11B93"/>
		<stop  offset="1" style="stop-color:#BF0DD7"/>
	</linearGradient>
	<polygon class="st25" points="751.5,459.9 751.5,293.1 740.7,293.1 740.7,459.9 	"/>
</g>
<g id="Calque_5">
	<line class="st26" x1="67.1" y1="1003.4" x2="1321.3" y2="1003.4"/>
	<line class="st27" x1="1321.3" y1="1003.4" x2="1500" y2="590.3"/>
	<line class="st28" x1="1500" y1="590.3" x2="1173.6" y2="590.3"/>
	<line class="st29" x1="146.5" y1="672.2" x2="205.3" y2="475.9"/>
	<line class="st30" x1="1117.2" y1="475.9" x2="205.3" y2="475.9"/>
</g>
</svg>
