<?xml version="1.0" encoding="utf-8"?>
<!-- Generator: Adobe Illustrator 22.0.1, SVG Export Plug-In . SVG Version: 6.00 Build 0)  -->
<svg version="1.1" xmlns="http://www.w3.org/2000/svg" xmlns:xlink="http://www.w3.org/1999/xlink" x="0px" y="0px"
	 viewBox="0 0 1500 1250" style="enable-background:new 0 0 1500 1250;" xml:space="preserve">
<style type="text/css">
	.st0{display:none;}
	.st1{display:inline;fill:url(#SVGID_1_);}
	.st2{fill:#FFFFFF;}
</style>
<g id="Calque_1" class="st0">
	<linearGradient id="SVGID_1_" gradientUnits="userSpaceOnUse" x1="0" y1="625" x2="1500" y2="625">
		<stop  offset="0" style="stop-color:#3B0063"/>
		<stop  offset="1" style="stop-color:#1B1464"/>
	</linearGradient>
	<rect class="st1" width="1500" height="1250"/>
</g>
<g id="Calque_12">
</g>
<g id="Calque_6">
	<circle class="st2" cx="236.2" cy="281.5" r="15.9"/>
	<circle class="st2" cx="445.3" cy="439.1" r="15.9"/>
	<circle class="st2" cx="220.2" cy="780" r="15.9"/>
	<circle class="st2" cx="1018.6" cy="640.9" r="15.9"/>
	<circle class="st2" cx="1066.4" cy="439.1" r="15.9"/>
	<circle class="st2" cx="1267.8" cy="795.9" r="15.9"/>
	<circle class="st2" cx="1299.7" cy="251" r="15.9"/>
	<circle class="st2" cx="578.3" cy="396.6" r="9.5"/>
	<circle class="st2" cx="1120.3" cy="763.6" r="9.5"/>
	<circle class="st2" cx="542.3" cy="324.6" r="9.5"/>
	<circle class="st2" cx="542.3" cy="324.6" r="9.5"/>
	<circle class="st2" cx="542.3" cy="324.6" r="9.5"/>
	<circle class="st2" cx="445.3" cy="703.4" r="9.5"/>
	<circle class="st2" cx="329.2" cy="423.2" r="9.5"/>
	<circle class="st2" cx="1219.8" cy="401.3" r="9.5"/>
	<circle class="st2" cx="872.2" cy="187.4" r="9.5"/>
	<circle class="st2" cx="1129.8" cy="625" r="9.5"/>
	<circle class="st2" cx="329.2" cy="886" r="9.5"/>
	<circle class="st2" cx="1103.6" cy="924.2" r="9.5"/>
</g>
</svg>
