<?xml version="1.0" encoding="utf-8"?>
<!-- Generator: Adobe Illustrator 22.0.1, SVG Export Plug-In . SVG Version: 6.00 Build 0)  -->
<svg version="1.1" xmlns="http://www.w3.org/2000/svg" xmlns:xlink="http://www.w3.org/1999/xlink" x="0px" y="0px"
	 viewBox="0 0 640 480" style="enable-background:new 0 0 640 480;" xml:space="preserve">
<style type="text/css">
	.st0{fill:url(#SVGID_1_);}
	.st1{fill:#CA9F28;}
	.st2{fill:#D9D9D9;}
	.st3{fill:#909092;}
	.st4{fill:#B4B5B5;}
	.st5{display:none;}
</style>
<g id="Décor">
	<linearGradient id="SVGID_1_" gradientUnits="userSpaceOnUse" x1="-9.6667" y1="240" x2="646.3333" y2="240">
		<stop  offset="0" style="stop-color:#3B0063"/>
		<stop  offset="1" style="stop-color:#1B1464"/>
	</linearGradient>
	<rect x="-9.7" y="-5.7" class="st0" width="656" height="491.3"/>
	<polygon class="st1" points="576.5,354.6 573,356.5 573.6,352.5 570.7,349.6 574.8,349.1 576.5,345.4 578.3,349.1 582.3,349.6 
		579.4,352.5 580.1,356.5 	"/>
	<polygon class="st1" points="10.6,355.1 6.3,357.4 7.2,352.6 3.7,349.3 8.5,348.6 10.6,344.3 12.7,348.6 17.5,349.3 14,352.6 
		14.9,357.4 	"/>
	<polygon class="st1" points="192.9,330.9 190.5,332.2 191,329.5 189.1,327.7 191.7,327.3 192.9,324.9 194.1,327.3 196.7,327.7 
		194.8,329.5 195.3,332.2 	"/>
	<polygon class="st1" points="64,442.4 61.6,443.7 62.1,441 60.2,439.2 62.8,438.8 64,436.4 65.2,438.8 67.8,439.2 65.9,441 
		66.3,443.7 	"/>
	<polygon class="st1" points="121.5,388.5 117.3,390.7 118.1,386.1 114.7,382.7 119.4,382.1 121.5,377.8 123.6,382.1 128.3,382.7 
		124.9,386.1 125.7,390.7 	"/>
	<polygon class="st1" points="182.2,473 177.9,475.2 178.7,470.5 175.3,467.1 180.1,466.4 182.2,462.1 184.3,466.4 189.1,467.1 
		185.6,470.5 186.4,475.2 	"/>
	<path class="st1" d="M539.5,450.3"/>
	<path class="st1" d="M548,450.3"/>
	<polygon class="st1" points="310.7,459.2 305.1,462.1 306.2,455.9 301.7,451.5 307.9,450.6 310.7,445 313.4,450.6 319.7,451.5 
		315.2,455.9 316.2,462.1 	"/>
	<polygon class="st1" points="480.8,292.3 476.6,294.6 477.4,289.8 474,286.5 478.7,285.8 480.8,281.5 483,285.8 487.7,286.5 
		484.3,289.8 485.1,294.6 	"/>
	<polygon class="st1" points="606.9,279.3 602.8,281.5 603.6,276.9 600.3,273.8 604.8,273.1 606.9,269 608.9,273.1 613.4,273.8 
		610.1,276.9 610.9,281.5 	"/>
	<polygon class="st1" points="403.3,417.6 399.9,419.4 400.6,415.6 397.8,413 401.6,412.4 403.3,409 405,412.4 408.8,413 406,415.6 
		406.7,419.4 	"/>
	<polygon class="st1" points="642.2,468.8 635.5,472.3 636.8,464.9 631.4,459.7 638.8,458.6 642.2,451.9 645.5,458.6 652.9,459.7 
		647.5,464.9 648.8,472.3 	"/>
	<polygon class="st1" points="5.2,247 1,249.3 1.8,244.5 -1.7,241.2 3.1,240.5 5.2,236.2 7.4,240.5 12.1,241.2 8.7,244.5 9.5,249.3 
			"/>
	<polygon class="st1" points="187.5,222.8 185.2,224 185.6,221.4 183.7,219.6 186.4,219.2 187.5,216.8 188.7,219.2 191.4,219.6 
		189.4,221.4 189.9,224 	"/>
	<polygon class="st1" points="113.9,281.2 111.1,282.6 111.6,279.5 109.4,277.3 112.5,276.9 113.9,274.1 115.2,276.9 118.3,277.3 
		116.1,279.5 116.6,282.6 	"/>
	<polygon class="st1" points="426.2,227.4 422,229.6 422.8,224.8 419.3,221.5 424.1,220.8 426.2,216.5 428.4,220.8 433.1,221.5 
		429.7,224.8 430.5,229.6 	"/>
	<polygon class="st1" points="176.8,364.9 172.6,367.1 173.4,362.4 169.9,359 174.7,358.3 176.8,354 179,358.3 183.7,359 
		180.3,362.4 181.1,367.1 	"/>
	<polygon class="st1" points="514.3,367 510.1,369.2 510.9,364.5 507.4,361.1 512.2,360.4 514.3,356.1 516.5,360.4 521.2,361.1 
		517.8,364.5 518.6,369.2 	"/>
	<polygon class="st1" points="607.3,59.4 603,61.7 603.8,56.9 600.4,53.6 605.1,52.9 607.3,48.5 609.4,52.9 614.2,53.6 610.7,56.9 
		611.5,61.7 	"/>
	<path class="st1" d="M542.7,342.1"/>
	<polygon class="st1" points="303.3,351.7 299,354 299.8,349.2 296.3,345.7 301.1,345 303.3,340.6 305.5,345 310.3,345.7 
		306.8,349.2 307.7,354 	"/>
	<polygon class="st1" points="500.6,459 497.5,460.7 498.1,457.2 495.6,454.8 499.1,454.3 500.6,451.1 502.2,454.3 505.7,454.8 
		503.2,457.2 503.7,460.7 	"/>
	<polygon class="st1" points="397.5,309.6 394.4,311.3 395,307.8 392.5,305.3 396,304.8 397.5,301.7 399.1,304.8 402.6,305.3 
		400.1,307.8 400.7,311.3 	"/>
	<polygon class="st1" points="214.9,204.6 212.6,205.9 213,203.2 211.1,201.4 213.8,201 214.9,198.6 216.1,201 218.8,201.4 
		216.8,203.2 217.3,205.9 	"/>
	<polygon class="st1" points="453.6,209.2 449.4,211.4 450.2,206.7 446.7,203.3 451.5,202.6 453.6,198.3 455.7,202.6 460.5,203.3 
		457.1,206.7 457.9,211.4 	"/>
	<polygon class="st1" points="27.3,120.7 23,123 23.8,118.2 20.4,114.9 25.1,114.2 27.3,109.9 29.4,114.2 34.2,114.9 30.7,118.2 
		31.5,123 	"/>
	<polygon class="st1" points="209.6,96.5 207.2,97.8 207.7,95.1 205.8,93.3 208.4,92.9 209.6,90.5 210.8,92.9 213.4,93.3 
		211.5,95.1 211.9,97.8 	"/>
	<polygon class="st1" points="219.6,57.1 217.2,58.3 217.7,55.7 215.8,53.8 218.4,53.4 219.6,51 220.8,53.4 223.4,53.8 221.5,55.7 
		221.9,58.3 	"/>
	<polygon class="st1" points="137.2,154.4 133.6,156.3 134.3,152.3 131.4,149.5 135.4,148.9 137.2,145.3 139,148.9 143,149.5 
		140.1,152.3 140.8,156.3 	"/>
	<polygon class="st1" points="497,143 491.1,146.1 492.3,139.6 487.5,134.9 494.1,134 497,128 499.9,134 506.5,134.9 501.7,139.6 
		502.9,146.1 	"/>
	<polygon class="st1" points="448.3,101.1 444,103.3 444.8,98.6 441.4,95.2 446.1,94.5 448.3,90.2 450.4,94.5 455.2,95.2 
		451.7,98.6 452.5,103.3 	"/>
	<polyline class="st1" points="564.7,215.9 560.5,213.6 556.2,215.9 	"/>
	<polygon class="st1" points="329.1,224.2 322.4,227.7 323.7,220.3 318.3,215.1 325.8,214 329.1,207.3 332.4,214 339.8,215.1 
		334.4,220.3 335.7,227.7 	"/>
	<polygon class="st1" points="529.9,42.3 526.5,44 527.2,40.3 524.4,37.6 528.2,37.1 529.9,33.7 531.6,37.1 535.3,37.6 532.6,40.3 
		533.3,44 	"/>
	<polygon class="st1" points="146.6,18.5 144.2,19.8 144.7,17.1 142.8,15.3 145.4,14.9 146.6,12.5 147.8,14.9 150.4,15.3 
		148.5,17.1 148.9,19.8 	"/>
	<polygon class="st1" points="72,77.1 69.8,78.3 70.2,75.8 68.4,74.1 70.9,73.7 72,71.4 73.2,73.7 75.7,74.1 73.9,75.8 74.3,78.3 	
		"/>
	<polygon class="st1" points="385.3,23.1 381,25.3 381.8,20.6 378.4,17.2 383.1,16.5 385.3,12.2 387.4,16.5 392.2,17.2 388.7,20.6 
		389.5,25.3 	"/>
	<line class="st1" x1="497.5" y1="135.6" x2="493.2" y2="137.9"/>
	<polygon class="st1" points="266.1,146.2 259.4,149.7 260.7,142.3 255.3,137.1 262.8,136 266.1,129.3 269.4,136 276.8,137.1 
		271.4,142.3 272.7,149.7 	"/>
	<polygon class="st1" points="355.4,105.7 353,107 353.4,104.3 351.5,102.5 354.2,102.1 355.4,99.7 356.6,102.1 359.2,102.5 
		357.3,104.3 357.7,107 	"/>
	<circle class="st2" cx="297" cy="164.3" r="73.5"/>
	<g>
		<circle class="st3" cx="293.7" cy="135.3" r="9"/>
		<ellipse class="st4" cx="294.4" cy="135.3" rx="8.3" ry="8.9"/>
	</g>
	<g>
		<circle class="st3" cx="270.5" cy="117.4" r="9"/>
		<ellipse class="st4" cx="271.2" cy="117.4" rx="8.3" ry="8.9"/>
	</g>
	<g>
		<ellipse transform="matrix(0.5729 -0.8197 0.8197 0.5729 -2.2929 356.1476)" class="st3" cx="340.6" cy="180.3" rx="9" ry="9"/>
		<path class="st4" d="M341.2,171.3c-4.6,0.3-8.3,4.2-8.3,8.9c0,4.7,3.7,8.6,8.3,8.9c4.6-0.3,8.3-4.2,8.3-8.9
			C349.5,175.5,345.9,171.7,341.2,171.3z"/>
	</g>
	<g>
		<circle class="st3" cx="291.8" cy="218.1" r="9"/>
		<ellipse class="st4" cx="292.5" cy="218.1" rx="8.3" ry="8.9"/>
	</g>
	<g>
		<ellipse transform="matrix(0.2289 -0.9735 0.9735 0.2289 136.946 433.2113)" class="st3" cx="341.9" cy="130.2" rx="9" ry="9"/>
		<ellipse class="st4" cx="342.6" cy="130.2" rx="8.3" ry="8.9"/>
	</g>
	<g>
		<ellipse transform="matrix(0.246 -0.9693 0.9693 0.246 20.9181 364.7019)" class="st3" cx="244.9" cy="168.9" rx="9" ry="9"/>
		<ellipse class="st4" cx="245.5" cy="168.9" rx="8.3" ry="8.9"/>
	</g>
	<g>
		<path class="st3" d="M324,221c0,3.3-2.6,5.9-5.9,5.9c-3.3,0-5.9-2.6-5.9-5.9c0-3.3,2.6-5.9,5.9-5.9C321.3,215.1,324,217.7,324,221
			z"/>
		<path class="st4" d="M318.5,215.1c-3,0.2-5.5,2.8-5.5,5.9c0,3.1,2.4,5.6,5.5,5.9c3-0.2,5.5-2.8,5.5-5.9
			C324,217.9,321.6,215.3,318.5,215.1z"/>
	</g>
	<g>
		<path class="st3" d="M315.3,148.3c0,3.5-2.8,6.3-6.3,6.3c-3.5,0-6.3-2.8-6.3-6.3c0-3.5,2.8-6.3,6.3-6.3
			C312.5,142,315.3,144.9,315.3,148.3z"/>
		<path class="st4" d="M309.5,142.1c-3.3,0.2-5.8,3-5.8,6.3c0,3.3,2.6,6,5.8,6.3c3.3-0.2,5.8-3,5.8-6.3
			C315.3,145,312.8,142.3,309.5,142.1z"/>
	</g>
	<g>
		<path class="st3" d="M284.8,192.3c0,3.5-2.8,6.3-6.3,6.3c-3.5,0-6.3-2.8-6.3-6.3c0-3.5,2.8-6.3,6.3-6.3
			C282,186,284.8,188.8,284.8,192.3z"/>
		<path class="st4" d="M278.9,186c-3.3,0.2-5.8,3-5.8,6.3c0,3.3,2.6,6,5.8,6.3c3.3-0.2,5.8-3,5.8-6.3
			C284.8,189,282.2,186.3,278.9,186z"/>
	</g>
	<g>
		<path class="st3" d="M299.4,176.5c0,2.1-1.7,3.8-3.8,3.8c-2.1,0-3.8-1.7-3.8-3.8c0-2.1,1.7-3.8,3.8-3.8
			C297.7,172.7,299.4,174.4,299.4,176.5z"/>
		<path class="st4" d="M295.9,172.7c-2,0.1-3.5,1.8-3.5,3.8s1.6,3.6,3.5,3.8c2-0.1,3.5-1.8,3.5-3.8S297.9,172.8,295.9,172.7z"/>
	</g>
	<g>
		<path class="st3" d="M319.1,126.4c0,2.1-1.7,3.8-3.8,3.8c-2.1,0-3.8-1.7-3.8-3.8c0-2.1,1.7-3.8,3.8-3.8
			C317.4,122.6,319.1,124.3,319.1,126.4z"/>
		<path class="st4" d="M315.6,122.6c-2,0.1-3.5,1.8-3.5,3.8c0,2,1.6,3.6,3.5,3.8c2-0.1,3.5-1.8,3.5-3.8
			C319.1,124.4,317.6,122.7,315.6,122.6z"/>
	</g>
	<g>
		<path class="st3" d="M252.5,135.3c0,2.1-1.7,3.8-3.8,3.8c-2.1,0-3.8-1.7-3.8-3.8c0-2.1,1.7-3.8,3.8-3.8
			C250.8,131.5,252.5,133.2,252.5,135.3z"/>
		<path class="st4" d="M249,131.5c-2,0.1-3.5,1.8-3.5,3.8c0,2,1.6,3.6,3.5,3.8c2-0.1,3.5-1.8,3.5-3.8
			C252.5,133.3,250.9,131.7,249,131.5z"/>
	</g>
	<g>
		<path class="st3" d="M286.6,154.6c0,2.1-1.7,3.8-3.8,3.8c-2.1,0-3.8-1.7-3.8-3.8c0-2.1,1.7-3.8,3.8-3.8
			C284.8,150.8,286.6,152.5,286.6,154.6z"/>
		<path class="st4" d="M283,150.8c-2,0.1-3.5,1.8-3.5,3.8c0,2,1.6,3.6,3.5,3.8c2-0.1,3.5-1.8,3.5-3.8C286.6,152.6,285,151,283,150.8
			z"/>
	</g>
	<g>
		<circle class="st3" cx="355.9" cy="164.3" r="3.8"/>
		<path class="st4" d="M356.2,160.5c-2,0.1-3.5,1.8-3.5,3.8c0,2,1.6,3.6,3.5,3.8c2-0.1,3.5-1.8,3.5-3.8
			C359.7,162.3,358.2,160.7,356.2,160.5z"/>
	</g>
	<g>
		<path class="st3" d="M344.4,209.1c0,2.1-1.7,3.8-3.8,3.8c-2.1,0-3.8-1.7-3.8-3.8c0-2.1,1.7-3.8,3.8-3.8
			C342.7,205.3,344.4,207,344.4,209.1z"/>
		<path class="st4" d="M340.9,205.3c-2,0.1-3.5,1.8-3.5,3.8s1.6,3.6,3.5,3.8c2-0.1,3.5-1.8,3.5-3.8S342.8,205.5,340.9,205.3z"/>
	</g>
</g>
<g id="FOND_AVION">
</g>
<g id="STICKERS">
</g>
<g id="VITRE">
</g>
<g id="OMBRES">
</g>
<g id="Calque_1" class="st5">
</g>
</svg>
