<?xml version="1.0" encoding="utf-8"?>
<!-- Generator: Adobe Illustrator 22.0.1, SVG Export Plug-In . SVG Version: 6.00 Build 0)  -->
<svg version="1.1" id="Calque_1" xmlns="http://www.w3.org/2000/svg" xmlns:xlink="http://www.w3.org/1999/xlink" x="0px" y="0px"
	 viewBox="0 0 640 300" style="enable-background:new 0 0 640 300;" xml:space="preserve">
<style type="text/css">
	.st0{display:none;}
	.st1{display:inline;fill:url(#SVGID_1_);}
	.st2{fill:url(#ombreCorp_1_);}
	.st3{fill:url(#corp_1_);}
	.st4{fill:url(#queu_1_);}
	.st5{fill:url(#ombreQueu_1_);}
	.st6{fill:url(#crinière_1_);}
	.st7{fill:url(#museau_1_);}
	.st8{fill:#292136;}
	.st9{fill:url(#OreilleGauche_1_);}
	.st10{fill:url(#OreilleDroite_1_);}
	.st11{fill:#581389;}
	.st12{fill:url(#sabot4_1_);}
	.st13{fill:url(#sabot3_1_);}
	.st14{fill:url(#sabot2_1_);}
	.st15{fill:url(#sabo1_1_);}
</style>
<g id="Décor" class="st0">
	
		<linearGradient id="SVGID_1_" gradientUnits="userSpaceOnUse" x1="-9.7" y1="152.05" x2="646.3" y2="152.05" gradientTransform="matrix(1 0 0 -1 0 302)">
		<stop  offset="0" style="stop-color:#3B0063"/>
		<stop  offset="1" style="stop-color:#1B1464"/>
	</linearGradient>
	<rect x="-9.7" y="-95.7" class="st1" width="656" height="491.3"/>
</g>
<g id="Calque_1_1_" class="st0">
</g>
<g id="Calque_2_1_">
	
		<linearGradient id="ombreCorp_1_" gradientUnits="userSpaceOnUse" x1="283.2474" y1="141.2921" x2="423.0078" y2="141.2921" gradientTransform="matrix(1 0 0 -1 0 302)">
		<stop  offset="2.054068e-07" style="stop-color:#BA1B93"/>
		<stop  offset="0.5761" style="stop-color:#B00DBC"/>
		<stop  offset="0.9632" style="stop-color:#9B0DBD"/>
	</linearGradient>
	<path id="ombreCorp" class="st2" d="M402.2,177.9l-7.7,16.1c0,0,7.3,20.1,6.4,25.3l-4.2,5.3L382.2,250l-6.1-0.9l-14.2,3.1l-8,0.5
		l4.1-12.3l5.5-0.2l4.7,2l3.1-3.6l7,0.8l13-21.2l-21.9-25.6l-40-12.8l-32-3.4l8.3,12.5l-3.3,22.3l19.8,31.5l11.2,8.3l4.7,8
		l-13.7,1.6l-2.3-8.1l-6.9-0.5l-0.6-6.2l-17.3-26.2l-8.3-1.7l-5.9-16.4l8.6-3.1l3-8.4l-7.5-31.7l37.9,3.2l38.1,12.6l12.3,15.3
		l7.5-34l5-30.1l34.7-64l0.2,31.9l-12.8,37l-0.6,28.6L402.2,177.9z"/>
	
		<linearGradient id="corp_1_" gradientUnits="userSpaceOnUse" x1="244.5204" y1="147.583" x2="472.5988" y2="147.583" gradientTransform="matrix(1 0 0 -1 0 302)">
		<stop  offset="3.418751e-03" style="stop-color:#FA3955"/>
		<stop  offset="0.747" style="stop-color:#BF0DD7"/>
	</linearGradient>
	<path id="corp" class="st3" d="M248.3,142.2l11.6-12.1l4.8-5c0,0,62.1-5.5,76.8-2.8c2.6,0.5,11.5-10.1,11.5-10.1l13.1-3.7
		l42.4-50.8l10.3-2.1h15.7l6.8,9.4l8,4.4v5.2l23.4,20.6v9.6l-1.9-1.3l0.8-4.4l-1.7-3.7l-33.7-16.6l9.4,11.1l-5,9.8l-9.4,1.7
		l-8.1-8.6l-0.2-31.9l-17.6,32.6l-17,31.4l-5.3,31.4l13.9,17.9l5.5,3.6l23.3,13.7l0.9,6.2l11.2,22.2l3.3,2.7l-0.6,5.9l8.3,16.2
		l1.1,8.4l-15.1-3.1l1.7-9.4l-4.5-4.5l1.9-7l-14.5-30l-24.5-5.3l-18.9-4.8l-12.3-15.3l-38.1-12.6l-37.9-3.2l7.5,31.7l-2.9,8.5
		l-8.6,3.1l-24.8,9.1l11.1,16.2l2,2.3l4.5,9.4l0.8,5.6l-0.5,8.6l-13-4.7l2.8-9.1l-5.2-5.5l2.5-4.5l-14.2-15.3l-4.8-3.3l4.8-7.7
		l22.2-10L247,166.2L248.3,142.2z"/>
	
		<linearGradient id="queu_1_" gradientUnits="userSpaceOnUse" x1="167.4012" y1="160.4436" x2="259.8461" y2="160.4436" gradientTransform="matrix(1 0 0 -1 0 302)">
		<stop  offset="0" style="stop-color:#E5AAFF"/>
		<stop  offset="0.7615" style="stop-color:#CD60EC"/>
		<stop  offset="1" style="stop-color:#B30DD7"/>
	</linearGradient>
	<polygon id="queu" class="st4" points="233.9,118.4 210.3,121.8 194.1,135.9 204.5,135.9 191.4,146.8 167.4,151.2 178.3,158 
		203.5,164.7 217.7,152.6 231.2,150.2 255.2,135 259.8,130.1 	"/>
	
		<linearGradient id="ombreQueu_1_" gradientUnits="userSpaceOnUse" x1="167.4012" y1="152.145" x2="255.1837" y2="152.145" gradientTransform="matrix(1 0 0 -1 0 302)">
		<stop  offset="1.623861e-02" style="stop-color:#B927BD"/>
		<stop  offset="0.4427" style="stop-color:#9B0DBD"/>
	</linearGradient>
	<polygon id="ombreQueu" class="st5" points="255.2,135 236.1,138 204.5,135.9 191.4,146.8 167.4,151.2 178.3,158 203.5,164.7 
		217.7,152.6 230.2,150.9 231.8,149.9 	"/>
	
		<linearGradient id="crinière_1_" gradientUnits="userSpaceOnUse" x1="348.0302" y1="221.434" x2="445.4275" y2="221.434" gradientTransform="matrix(1 0 0 -1 0 302)">
		<stop  offset="1.623862e-02" style="stop-color:#E5AAFF"/>
		<stop  offset="0.4231" style="stop-color:#BF90FD"/>
		<stop  offset="1" style="stop-color:#9B3DBD"/>
	</linearGradient>
	<polygon id="crinière" class="st6" points="369.4,104.8 359.4,106.1 348,100 356.4,93.1 367.1,91.7 356.6,89.2 370.2,81.2 
		382.1,81.2 369.1,79.2 383.6,67.7 394.9,67.7 393.9,64.5 407,57.8 418.7,55.5 426.2,55.1 434.4,55.9 445.4,62.4 433.9,72.3 
		426.1,60.8 422.8,61.3 419.1,78.4 411.3,73.6 400.5,90.9 395.9,73 	"/>
	
		<linearGradient id="museau_1_" gradientUnits="userSpaceOnUse" x1="436.058" y1="207.8149" x2="472.5988" y2="207.8149" gradientTransform="matrix(1 0 0 -1 0 302)">
		<stop  offset="2.054068e-07" style="stop-color:#BA1B93"/>
		<stop  offset="0.1761" style="stop-color:#B00DBC"/>
		<stop  offset="0.5188" style="stop-color:#7A0DA2"/>
	</linearGradient>
	<polygon id="museau" class="st7" points="462.8,109.6 468.5,106.7 472.6,104.7 470.7,103.4 471.5,99 469.8,95.3 436.1,78.7 
		445.4,89.8 440.4,99.7 459.2,105.7 	"/>
	<path id="narine" class="st8" d="M470.7,103.4l-4.1-3.1c0,0-0.9-0.8,0-2.2c0.9-1.4,3.1-2.8,3.1-2.8l1.7,3.7L470.7,103.4z"/>
	<path id="yeux" class="st8" d="M444.2,73.7v5c0,0-6.9,0-8.1-5H444.2z"/>
	
		<linearGradient id="OreilleGauche_1_" gradientUnits="userSpaceOnUse" x1="419.6767" y1="251.0704" x2="426.3914" y2="251.0704" gradientTransform="matrix(1 0 0 -1 0 302)">
		<stop  offset="2.054068e-07" style="stop-color:#BA1B93"/>
		<stop  offset="0.2581" style="stop-color:#B00DBC"/>
		<stop  offset="0.8128" style="stop-color:#7A0DA2"/>
	</linearGradient>
	<polygon id="OreilleGauche" class="st9" points="422.8,60.9 419.7,51.9 426.4,40.9 426.1,60.5 	"/>
	
		<linearGradient id="OreilleDroite_1_" gradientUnits="userSpaceOnUse" x1="427.6386" y1="254.4612" x2="435.1322" y2="254.4612" gradientTransform="matrix(1 0 0 -1 0 302)">
		<stop  offset="2.054068e-07" style="stop-color:#BA1B93"/>
		<stop  offset="0.2718" style="stop-color:#B00DBC"/>
		<stop  offset="0.8128" style="stop-color:#7A0DA2"/>
	</linearGradient>
	<polygon id="OreilleDroite" class="st10" points="427.6,50.9 435.1,39.5 433.3,55.5 429.4,55.5 	"/>
	<polygon id="ombreBouche" class="st11" points="462.8,109.6 468.5,106.7 458.9,102.5 452.9,100 452.9,101.1 458.1,103.4 
		459.2,105.7 	"/>
	
		<linearGradient id="sabot4_1_" gradientUnits="userSpaceOnUse" x1="434.5188" y1="53.3088" x2="449.6621" y2="53.3088" gradientTransform="matrix(1 0 0 -1 0 302)">
		<stop  offset="1.623867e-02" style="stop-color:#C094FF"/>
		<stop  offset="1" style="stop-color:#9B0DBD"/>
	</linearGradient>
	<polygon id="sabot4" class="st12" points="449.6,253.3 448.6,244.8 435.6,244.1 434.5,250.1 	"/>
	
		<linearGradient id="sabot3_1_" gradientUnits="userSpaceOnUse" x1="353.9516" y1="55.6065" x2="363.4772" y2="55.6065" gradientTransform="matrix(1 0 0 -1 0 302)">
		<stop  offset="1.623867e-02" style="stop-color:#C094FF"/>
		<stop  offset="1" style="stop-color:#9B0DBD"/>
	</linearGradient>
	<polygon id="sabot3" class="st13" points="361.9,252.2 353.9,252.6 358,240.3 363.5,240.1 	"/>
	
		<linearGradient id="sabot2_1_" gradientUnits="userSpaceOnUse" x1="323.0004" y1="46.3152" x2="338.1923" y2="46.3152" gradientTransform="matrix(1 0 0 -1 0 302)">
		<stop  offset="1.623867e-02" style="stop-color:#C094FF"/>
		<stop  offset="1" style="stop-color:#9B0DBD"/>
	</linearGradient>
	<polygon id="sabot2" class="st14" points="333.5,250.9 338.2,258.9 324.5,260.4 323,255 	"/>
	
		<linearGradient id="sabo1_1_" gradientUnits="userSpaceOnUse" x1="263.3931" y1="53.8108" x2="276.8226" y2="53.8108" gradientTransform="matrix(1 0 0 -1 0 302)">
		<stop  offset="0" style="stop-color:#C094FF"/>
		<stop  offset="0.853" style="stop-color:#AC00B9"/>
	</linearGradient>
	<polygon id="sabo1" class="st15" points="276.4,252.5 276.8,243.9 264.6,243.9 263.4,247.8 	"/>
</g>
</svg>
