<?xml version="1.0" encoding="utf-8"?>
<!-- Generator: Adobe Illustrator 22.0.1, SVG Export Plug-In . SVG Version: 6.00 Build 0)  -->
<svg version="1.1" xmlns="http://www.w3.org/2000/svg" xmlns:xlink="http://www.w3.org/1999/xlink" x="0px" y="0px"
	 viewBox="0 0 640 200" style="enable-background:new 0 0 640 200;" xml:space="preserve">
<style type="text/css">
	.st0{display:none;}
	.st1{display:inline;fill:url(#SVGID_1_);}
	.st2{fill:url(#SVGID_2_);}
	.st3{fill:#FEFEFE;}
	.st4{fill:url(#SVGID_3_);}
	.st5{fill:url(#SVGID_4_);}
	.st6{fill:url(#SVGID_5_);}
	.st7{fill:none;}
	.st8{fill:url(#SVGID_6_);}
	.st9{fill:#FFD4DE;}
	.st10{fill:url(#SVGID_7_);}
	.st11{fill:url(#SVGID_8_);}
	.st12{fill:url(#SVGID_9_);}
	.st13{fill:url(#SVGID_10_);}
	.st14{fill:url(#SVGID_11_);}
	.st15{fill:url(#SVGID_12_);}
	.st16{fill:url(#SVGID_13_);}
	.st17{fill:url(#SVGID_14_);}
	.st18{fill:url(#SVGID_15_);}
	.st19{fill:url(#SVGID_16_);}
	.st20{fill:url(#SVGID_17_);}
	.st21{fill:url(#SVGID_18_);}
	.st22{fill:url(#SVGID_19_);}
	.st23{fill:url(#SVGID_20_);}
	.st24{fill:url(#SVGID_21_);}
	.st25{fill:url(#SVGID_22_);}
	.st26{fill:url(#SVGID_23_);}
	.st27{fill:url(#SVGID_24_);}
	.st28{fill:url(#SVGID_25_);}
	.st29{fill:url(#SVGID_26_);}
	.st30{fill:url(#SVGID_27_);}
	.st31{fill:url(#SVGID_28_);}
	.st32{fill:url(#SVGID_29_);}
	.st33{fill:url(#SVGID_30_);}
	.st34{fill:#4F206D;}
</style>
<g id="Décor" class="st0">
	<linearGradient id="SVGID_1_" gradientUnits="userSpaceOnUse" x1="-9.6667" y1="100.005" x2="646.3333" y2="100.005">
		<stop  offset="0" style="stop-color:#3B0063"/>
		<stop  offset="1" style="stop-color:#1B1464"/>
	</linearGradient>
	<rect x="-9.7" y="-145.7" class="st1" width="656" height="491.3"/>
</g>
<g id="FOND_AVION">
	
		<linearGradient id="SVGID_2_" gradientUnits="userSpaceOnUse" x1="28.5608" y1="100" x2="645.2735" y2="100" gradientTransform="matrix(-1 0 0 1 657.8333 0)">
		<stop  offset="0" style="stop-color:#F11B93"/>
		<stop  offset="1" style="stop-color:#BF0DD7"/>
	</linearGradient>
	<path class="st2" d="M629.3,142.6c0,0-1.3-6.7-23.8-16.2l-8.7-7.6c0,0-12.7-8-34.9-8.5L397,109.5l-64.4-24.6h-22.6l31.8,23.6
		l-145.7-0.2l-83.1-20.9L50.9,3.3H27.5l23.3,90.2l-15.1,3.3l0.7,15.1l-23.8,17.6l1.3,1.8h19.8l68.6-26.9L78.9,128l89.3,29.3
		l155.1,0.2l-50.9,36.4c0,0,16.7,5.3,36,1.5l58.6-22.2c0,0,10.2,12.7,76.7,5.5l5.3-4.2l-0.2-2.5c0,0,110.4,1.8,131.3-4.9
		C580.2,167,620.7,163.1,629.3,142.6z"/>
</g>
<g id="STICKERS">
	<path class="st3" d="M516.4,141.2l8.7,8.2l-98.5,0.3c0,0-57-13.1-94.9,0.5l-194-2.5l-36-11.5l58.1,3.3L516.4,141.2z"/>
	<polygon class="st3" points="467.6,153.2 464,157.3 448.5,157.6 447.4,154.3 446.9,153 	"/>
	<polygon class="st3" points="443.8,178.6 443.3,150.8 447.4,154.3 449,174.4 	"/>
	<polyline class="st3" points="328.1,153.4 322.9,157 167.8,156.8 150.3,151.3 328.1,153.4 	"/>
</g>
<g id="VITRE">
	
		<linearGradient id="SVGID_3_" gradientUnits="userSpaceOnUse" x1="53.5676" y1="122.676" x2="64.6161" y2="122.676" gradientTransform="matrix(-1 0 0 1 657.8333 0)">
		<stop  offset="0" style="stop-color:#FFD45A"/>
		<stop  offset="1" style="stop-color:#FA3955"/>
	</linearGradient>
	<path class="st4" d="M604.3,125.8l-8,0.1l-3-6.5l4.5,0.1C597.7,119.5,603.4,126.2,604.3,125.8z"/>
	
		<linearGradient id="SVGID_4_" gradientUnits="userSpaceOnUse" x1="62.8429" y1="122.8806" x2="71.7089" y2="122.8806" gradientTransform="matrix(-1 0 0 1 657.8333 0)">
		<stop  offset="0" style="stop-color:#FFD45A"/>
		<stop  offset="1" style="stop-color:#FA3955"/>
	</linearGradient>
	<path class="st5" d="M591.9,119.8h-5.7l0.5,4.8c0,0,2.3,1.4,8.3,1.4L591.9,119.8z"/>
	
		<linearGradient id="SVGID_5_" gradientUnits="userSpaceOnUse" x1="73.0729" y1="121.7227" x2="80.9842" y2="121.7227" gradientTransform="matrix(-1 0 0 1 657.8333 0)">
		<stop  offset="0" style="stop-color:#FFD45A"/>
		<stop  offset="1" style="stop-color:#FA3955"/>
	</linearGradient>
	<path class="st6" d="M584.8,119.4l-7.9,0.1c0,0,2.7,4.6,7.8,4.5L584.8,119.4z"/>
	<path class="st7" d="M522.9,121.9c0,0-2.5-2.6-4.8,0.1l-0.1,5.2c0,0,2.5,3,5,0L522.9,121.9z"/>
	<path class="st7" d="M494.6,121.7c0,0-2.5-2.6-4.8,0.1l-0.1,5.2c0,0,2.5,3,5,0L494.6,121.7z"/>
	<path class="st7" d="M480.6,121.7c0,0-2.5-2.6-4.8,0.1l-0.1,5.2c0,0,2.5,3,5,0L480.6,121.7z"/>
	<path class="st7" d="M466.7,121.8c0,0-2.5-2.6-4.8,0.1l-0.1,5.2c0,0,2.5,3,5,0L466.7,121.8z"/>
	<path class="st7" d="M452.5,121.8c0,0-2.5-2.6-4.8,0.1l-0.1,5.2c0,0,2.5,3,5,0L452.5,121.8z"/>
	<path class="st7" d="M438.7,121.7c0,0-2.5-2.6-4.8,0.1l-0.1,5.2c0,0,2.5,3,5,0L438.7,121.7z"/>
	<path class="st7" d="M424.6,121.7c0,0-2.5-2.6-4.8,0.1l-0.1,5.2c0,0,2.5,3,5,0L424.6,121.7z"/>
	<path class="st7" d="M410.4,121.8c0,0-2.5-2.6-4.8,0.1l-0.1,5.2c0,0,2.5,3,5,0L410.4,121.8z"/>
	
		<linearGradient id="SVGID_6_" gradientUnits="userSpaceOnUse" x1="455.7221" y1="124.913" x2="460.678" y2="124.913" gradientTransform="matrix(-1 0 0 1 657.8333 0)">
		<stop  offset="0" style="stop-color:#FFD45A"/>
		<stop  offset="1" style="stop-color:#FA3955"/>
	</linearGradient>
	<path class="st8" d="M202.1,122.2c0,0-1.1-1.2-2.6-1.1c-0.3,0-0.5,0.1-0.8,0.2c-0.5,0.2-0.9,0.5-1.4,1.1l-0.1,5.2c0,0,2.5,3,5,0
		l0-0.5L202.1,122.2z"/>
	<polygon class="st9" points="201,121.5 198.1,128.1 197.7,127.9 200.6,121.3 	"/>
	<polygon class="st9" points="200.5,121.2 200.3,121.2 197.5,127.4 197.6,127.5 	"/>
	
		<linearGradient id="SVGID_7_" gradientUnits="userSpaceOnUse" x1="442.173" y1="125.0039" x2="447.1289" y2="125.0039" gradientTransform="matrix(-1 0 0 1 657.8333 0)">
		<stop  offset="0" style="stop-color:#FFD45A"/>
		<stop  offset="1" style="stop-color:#FA3955"/>
	</linearGradient>
	<path class="st10" d="M215.6,122.3c0,0-1.1-1.2-2.6-1.1c-0.3,0-0.5,0.1-0.8,0.2c-0.5,0.2-0.9,0.5-1.4,1.1l-0.1,5.2c0,0,2.5,3,5,0
		l0-0.5L215.6,122.3z"/>
	<polygon class="st9" points="214.6,121.6 211.7,128.2 211.2,128 214.1,121.4 	"/>
	<polygon class="st9" points="214,121.3 213.9,121.3 211.1,127.5 211.2,127.6 	"/>
	
		<linearGradient id="SVGID_8_" gradientUnits="userSpaceOnUse" x1="428.6238" y1="125.0948" x2="433.5797" y2="125.0948" gradientTransform="matrix(-1 0 0 1 657.8333 0)">
		<stop  offset="0" style="stop-color:#FFD45A"/>
		<stop  offset="1" style="stop-color:#FA3955"/>
	</linearGradient>
	<path class="st11" d="M229.2,122.4c0,0-1.1-1.2-2.6-1.1c-0.3,0-0.5,0.1-0.8,0.2c-0.5,0.2-0.9,0.5-1.4,1.1l-0.1,5.2c0,0,2.5,3,5,0
		l0-0.5L229.2,122.4z"/>
	<polygon class="st9" points="228.1,121.7 225.2,128.3 224.8,128 227.7,121.5 	"/>
	<polygon class="st9" points="227.5,121.4 227.4,121.4 224.6,127.6 224.7,127.6 	"/>
	
		<linearGradient id="SVGID_9_" gradientUnits="userSpaceOnUse" x1="415.0747" y1="125.1858" x2="420.0306" y2="125.1858" gradientTransform="matrix(-1 0 0 1 657.8333 0)">
		<stop  offset="0" style="stop-color:#FFD45A"/>
		<stop  offset="1" style="stop-color:#FA3955"/>
	</linearGradient>
	<path class="st12" d="M242.7,122.4c0,0-1.1-1.2-2.6-1.1c-0.3,0-0.5,0.1-0.8,0.2c-0.5,0.2-0.9,0.5-1.4,1.1l-0.1,5.2c0,0,2.5,3,5,0
		l0-0.5L242.7,122.4z"/>
	<polygon class="st9" points="241.7,121.8 238.8,128.4 238.3,128.1 241.2,121.6 	"/>
	<polygon class="st9" points="241.1,121.5 241,121.5 238.2,127.7 238.3,127.7 	"/>
	
		<linearGradient id="SVGID_10_" gradientUnits="userSpaceOnUse" x1="401.5256" y1="125.2767" x2="406.4815" y2="125.2767" gradientTransform="matrix(-1 0 0 1 657.8333 0)">
		<stop  offset="0" style="stop-color:#FFD45A"/>
		<stop  offset="1" style="stop-color:#FA3955"/>
	</linearGradient>
	<path class="st13" d="M256.3,122.5c0,0-1.1-1.2-2.6-1.1c-0.3,0-0.5,0.1-0.8,0.2c-0.5,0.2-0.9,0.5-1.4,1.1l-0.1,5.2c0,0,2.5,3,5,0
		l0-0.5L256.3,122.5z"/>
	<polygon class="st9" points="255.2,121.9 252.3,128.5 251.9,128.2 254.8,121.7 	"/>
	<polygon class="st9" points="254.6,121.6 254.5,121.6 251.7,127.8 251.8,127.8 	"/>
	
		<linearGradient id="SVGID_11_" gradientUnits="userSpaceOnUse" x1="387.9765" y1="125.3676" x2="392.9324" y2="125.3676" gradientTransform="matrix(-1 0 0 1 657.8333 0)">
		<stop  offset="0" style="stop-color:#FFD45A"/>
		<stop  offset="1" style="stop-color:#FA3955"/>
	</linearGradient>
	<path class="st14" d="M269.8,122.6c0,0-1.1-1.2-2.6-1.1c-0.3,0-0.5,0.1-0.8,0.2c-0.5,0.2-0.9,0.5-1.4,1.1l-0.1,5.2c0,0,2.5,3,5,0
		l0-0.5L269.8,122.6z"/>
	<polygon class="st9" points="268.8,122 265.9,128.6 265.4,128.3 268.3,121.7 	"/>
	<polygon class="st9" points="268.2,121.7 268.1,121.7 265.3,127.9 265.4,127.9 	"/>
	
		<linearGradient id="SVGID_12_" gradientUnits="userSpaceOnUse" x1="374.4273" y1="125.4586" x2="379.3832" y2="125.4586" gradientTransform="matrix(-1 0 0 1 657.8333 0)">
		<stop  offset="0" style="stop-color:#FFD45A"/>
		<stop  offset="1" style="stop-color:#FA3955"/>
	</linearGradient>
	<path class="st15" d="M283.4,122.7c0,0-1.1-1.2-2.6-1.1c-0.3,0-0.5,0.1-0.8,0.2c-0.5,0.2-0.9,0.5-1.4,1.1l-0.1,5.2c0,0,2.5,3,5,0
		l0-0.5L283.4,122.7z"/>
	<polygon class="st9" points="282.3,122.1 279.4,128.7 279,128.4 281.8,121.8 	"/>
	<polygon class="st9" points="281.7,121.8 281.6,121.8 278.8,127.9 278.9,128 	"/>
	
		<linearGradient id="SVGID_13_" gradientUnits="userSpaceOnUse" x1="360.8782" y1="125.5495" x2="365.8341" y2="125.5495" gradientTransform="matrix(-1 0 0 1 657.8333 0)">
		<stop  offset="0" style="stop-color:#FFD45A"/>
		<stop  offset="1" style="stop-color:#FA3955"/>
	</linearGradient>
	<path class="st16" d="M296.9,122.8c0,0-1.1-1.2-2.6-1.1c-0.3,0-0.5,0.1-0.8,0.2c-0.5,0.2-0.9,0.5-1.4,1.1l-0.1,5.2c0,0,2.5,3,5,0
		l0-0.5L296.9,122.8z"/>
	<polygon class="st9" points="295.9,122.2 293,128.8 292.5,128.5 295.4,121.9 	"/>
	<polygon class="st9" points="295.3,121.9 295.2,121.8 292.4,128 292.5,128.1 	"/>
	
		<linearGradient id="SVGID_14_" gradientUnits="userSpaceOnUse" x1="347.3291" y1="125.6404" x2="352.285" y2="125.6404" gradientTransform="matrix(-1 0 0 1 657.8333 0)">
		<stop  offset="0" style="stop-color:#FFD45A"/>
		<stop  offset="1" style="stop-color:#FA3955"/>
	</linearGradient>
	<path class="st17" d="M310.5,122.9c0,0-1.1-1.2-2.6-1.1c-0.3,0-0.5,0.1-0.8,0.2c-0.5,0.2-0.9,0.5-1.4,1.1l-0.1,5.2c0,0,2.5,3,5,0
		l0-0.5L310.5,122.9z"/>
	<polygon class="st9" points="309.4,122.2 306.5,128.8 306.1,128.6 308.9,122 	"/>
	<polygon class="st9" points="308.8,122 308.7,121.9 305.9,128.1 306,128.2 	"/>
	
		<linearGradient id="SVGID_15_" gradientUnits="userSpaceOnUse" x1="333.78" y1="125.7314" x2="338.7358" y2="125.7314" gradientTransform="matrix(-1 0 0 1 657.8333 0)">
		<stop  offset="0" style="stop-color:#FFD45A"/>
		<stop  offset="1" style="stop-color:#FA3955"/>
	</linearGradient>
	<path class="st18" d="M324,123c0,0-1.1-1.2-2.6-1.1c-0.3,0-0.5,0.1-0.8,0.2c-0.5,0.2-0.9,0.5-1.4,1.1l-0.1,5.2c0,0,2.5,3,5,0l0-0.5
		L324,123z"/>
	<polygon class="st9" points="323,122.3 320.1,128.9 319.6,128.7 322.5,122.1 	"/>
	<polygon class="st9" points="322.4,122.1 322.3,122 319.5,128.2 319.6,128.3 	"/>
	
		<linearGradient id="SVGID_16_" gradientUnits="userSpaceOnUse" x1="320.2308" y1="125.8223" x2="325.1867" y2="125.8223" gradientTransform="matrix(-1 0 0 1 657.8333 0)">
		<stop  offset="0" style="stop-color:#FFD45A"/>
		<stop  offset="1" style="stop-color:#FA3955"/>
	</linearGradient>
	<path class="st19" d="M337.6,123.1c0,0-1.1-1.2-2.6-1.1c-0.3,0-0.5,0.1-0.8,0.2c-0.5,0.2-0.9,0.5-1.4,1.1l-0.1,5.2c0,0,2.5,3,5,0
		l0-0.5L337.6,123.1z"/>
	<polygon class="st9" points="336.5,122.4 333.6,129 333.2,128.8 336,122.2 	"/>
	<polygon class="st9" points="335.9,122.2 335.8,122.1 333,128.3 333.1,128.4 	"/>
	
		<linearGradient id="SVGID_17_" gradientUnits="userSpaceOnUse" x1="306.6817" y1="125.9132" x2="311.6376" y2="125.9132" gradientTransform="matrix(-1 0 0 1 657.8333 0)">
		<stop  offset="0" style="stop-color:#FFD45A"/>
		<stop  offset="1" style="stop-color:#FA3955"/>
	</linearGradient>
	<path class="st20" d="M351.1,123.2c0,0-1.1-1.2-2.6-1.1c-0.3,0-0.5,0.1-0.8,0.2c-0.5,0.2-0.9,0.5-1.4,1.1l-0.1,5.2c0,0,2.5,3,5,0
		l0-0.5L351.1,123.2z"/>
	<polygon class="st9" points="350.1,122.5 347.2,129.1 346.7,128.9 349.6,122.3 	"/>
	<polygon class="st9" points="349.5,122.2 349.4,122.2 346.6,128.4 346.7,128.5 	"/>
	
		<linearGradient id="SVGID_18_" gradientUnits="userSpaceOnUse" x1="293.1326" y1="126.0042" x2="298.0885" y2="126.0042" gradientTransform="matrix(-1 0 0 1 657.8333 0)">
		<stop  offset="0" style="stop-color:#FFD45A"/>
		<stop  offset="1" style="stop-color:#FA3955"/>
	</linearGradient>
	<path class="st21" d="M364.7,123.3c0,0-1.1-1.2-2.6-1.1c-0.3,0-0.5,0.1-0.8,0.2c-0.5,0.2-0.9,0.5-1.4,1.1l-0.1,5.2c0,0,2.5,3,5,0
		l0-0.5L364.7,123.3z"/>
	<polygon class="st9" points="363.6,122.6 360.7,129.2 360.3,129 363.1,122.4 	"/>
	<polygon class="st9" points="363,122.3 362.9,122.3 360.1,128.5 360.2,128.6 	"/>
	
		<linearGradient id="SVGID_19_" gradientUnits="userSpaceOnUse" x1="279.5834" y1="126.0951" x2="284.5393" y2="126.0951" gradientTransform="matrix(-1 0 0 1 657.8333 0)">
		<stop  offset="0" style="stop-color:#FFD45A"/>
		<stop  offset="1" style="stop-color:#FA3955"/>
	</linearGradient>
	<path class="st22" d="M378.2,123.4c0,0-1.1-1.2-2.6-1.1c-0.3,0-0.5,0.1-0.8,0.2c-0.5,0.2-0.9,0.5-1.4,1.1l-0.1,5.2c0,0,2.5,3,5,0
		l0-0.5L378.2,123.4z"/>
	<polygon class="st9" points="377.2,122.7 374.3,129.3 373.8,129 376.7,122.5 	"/>
	<polygon class="st9" points="376.6,122.4 376.5,122.4 373.7,128.6 373.8,128.6 	"/>
	
		<linearGradient id="SVGID_20_" gradientUnits="userSpaceOnUse" x1="266.0343" y1="126.186" x2="270.9902" y2="126.186" gradientTransform="matrix(-1 0 0 1 657.8333 0)">
		<stop  offset="0" style="stop-color:#FFD45A"/>
		<stop  offset="1" style="stop-color:#FA3955"/>
	</linearGradient>
	<path class="st23" d="M391.8,123.4c0,0-1.1-1.2-2.6-1.1c-0.3,0-0.5,0.1-0.8,0.2c-0.5,0.2-0.9,0.5-1.4,1.1l-0.1,5.2c0,0,2.5,3,5,0
		l0-0.5L391.8,123.4z"/>
	<polygon class="st9" points="390.7,122.8 387.8,129.4 387.4,129.1 390.2,122.6 	"/>
	<polygon class="st9" points="390.1,122.5 390,122.5 387.2,128.7 387.3,128.7 	"/>
	
		<linearGradient id="SVGID_21_" gradientUnits="userSpaceOnUse" x1="252.4852" y1="126.277" x2="257.4411" y2="126.277" gradientTransform="matrix(-1 0 0 1 657.8333 0)">
		<stop  offset="0" style="stop-color:#FFD45A"/>
		<stop  offset="1" style="stop-color:#FA3955"/>
	</linearGradient>
	<path class="st24" d="M405.3,123.5c0,0-1.1-1.2-2.6-1.1c-0.3,0-0.5,0.1-0.8,0.2c-0.5,0.2-0.9,0.5-1.4,1.1l-0.1,5.2c0,0,2.5,3,5,0
		l0-0.5L405.3,123.5z"/>
	<polygon class="st9" points="404.3,122.9 401.4,129.5 400.9,129.2 403.8,122.7 	"/>
	<polygon class="st9" points="403.7,122.6 403.6,122.6 400.8,128.8 400.9,128.8 	"/>
	
		<linearGradient id="SVGID_22_" gradientUnits="userSpaceOnUse" x1="238.9361" y1="126.3679" x2="243.892" y2="126.3679" gradientTransform="matrix(-1 0 0 1 657.8333 0)">
		<stop  offset="0" style="stop-color:#FFD45A"/>
		<stop  offset="1" style="stop-color:#FA3955"/>
	</linearGradient>
	<path class="st25" d="M418.9,123.6c0,0-1.1-1.2-2.6-1.1c-0.3,0-0.5,0.1-0.8,0.2c-0.5,0.2-0.9,0.5-1.4,1.1l-0.1,5.2c0,0,2.5,3,5,0
		l0-0.5L418.9,123.6z"/>
	<polygon class="st9" points="417.8,123 414.9,129.6 414.5,129.3 417.3,122.7 	"/>
	<polygon class="st9" points="417.2,122.7 417.1,122.7 414.3,128.9 414.4,128.9 	"/>
	
		<linearGradient id="SVGID_23_" gradientUnits="userSpaceOnUse" x1="225.3869" y1="126.4588" x2="230.3428" y2="126.4588" gradientTransform="matrix(-1 0 0 1 657.8333 0)">
		<stop  offset="0" style="stop-color:#FFD45A"/>
		<stop  offset="1" style="stop-color:#FA3955"/>
	</linearGradient>
	<path class="st26" d="M432.4,123.7c0,0-1.1-1.2-2.6-1.1c-0.3,0-0.5,0.1-0.8,0.2c-0.5,0.2-0.9,0.5-1.4,1.1l-0.1,5.2c0,0,2.5,3,5,0
		l0-0.5L432.4,123.7z"/>
	<polygon class="st9" points="431.3,123.1 428.5,129.7 428,129.4 430.9,122.8 	"/>
	<polygon class="st9" points="430.8,122.8 430.7,122.8 427.9,128.9 428,129 	"/>
	
		<linearGradient id="SVGID_24_" gradientUnits="userSpaceOnUse" x1="211.8378" y1="126.5498" x2="216.7937" y2="126.5498" gradientTransform="matrix(-1 0 0 1 657.8333 0)">
		<stop  offset="0" style="stop-color:#FFD45A"/>
		<stop  offset="1" style="stop-color:#FA3955"/>
	</linearGradient>
	<path class="st27" d="M446,123.8c0,0-1.1-1.2-2.6-1.1c-0.3,0-0.5,0.1-0.8,0.2c-0.5,0.2-0.9,0.5-1.4,1.1l-0.1,5.2c0,0,2.5,3,5,0
		l0-0.5L446,123.8z"/>
	<polygon class="st9" points="444.9,123.2 442,129.8 441.6,129.5 444.4,122.9 	"/>
	<polygon class="st9" points="444.3,122.9 444.2,122.8 441.4,129 441.5,129.1 	"/>
	
		<linearGradient id="SVGID_25_" gradientUnits="userSpaceOnUse" x1="198.7433" y1="126.5498" x2="203.6992" y2="126.5498" gradientTransform="matrix(-1 0 0 1 657.8333 0)">
		<stop  offset="0" style="stop-color:#FFD45A"/>
		<stop  offset="1" style="stop-color:#FA3955"/>
	</linearGradient>
	<path class="st28" d="M459,123.8c0,0-1.1-1.2-2.6-1.1c-0.3,0-0.5,0.1-0.8,0.2c-0.5,0.2-0.9,0.5-1.4,1.1l-0.1,5.2c0,0,2.5,3,5,0
		l0-0.5L459,123.8z"/>
	<polygon class="st9" points="458,123.2 455.1,129.8 454.7,129.5 457.5,122.9 	"/>
	<polygon class="st9" points="457.4,122.9 457.3,122.8 454.5,129 454.6,129.1 	"/>
	
		<linearGradient id="SVGID_26_" gradientUnits="userSpaceOnUse" x1="185.6489" y1="126.5498" x2="190.6048" y2="126.5498" gradientTransform="matrix(-1 0 0 1 657.8333 0)">
		<stop  offset="0" style="stop-color:#FFD45A"/>
		<stop  offset="1" style="stop-color:#FA3955"/>
	</linearGradient>
	<path class="st29" d="M472.1,123.8c0,0-1.1-1.2-2.6-1.1c-0.3,0-0.5,0.1-0.8,0.2c-0.5,0.2-0.9,0.5-1.4,1.1l-0.1,5.2c0,0,2.5,3,5,0
		l0-0.5L472.1,123.8z"/>
	<polygon class="st9" points="471.1,123.2 468.2,129.8 467.7,129.5 470.6,122.9 	"/>
	<polygon class="st9" points="470.5,122.9 470.4,122.8 467.6,129 467.7,129.1 	"/>
	
		<linearGradient id="SVGID_27_" gradientUnits="userSpaceOnUse" x1="172.5544" y1="126.5498" x2="177.5103" y2="126.5498" gradientTransform="matrix(-1 0 0 1 657.8333 0)">
		<stop  offset="0" style="stop-color:#FFD45A"/>
		<stop  offset="1" style="stop-color:#FA3955"/>
	</linearGradient>
	<path class="st30" d="M485.2,123.8c0,0-1.1-1.2-2.6-1.1c-0.3,0-0.5,0.1-0.8,0.2c-0.5,0.2-0.9,0.5-1.4,1.1l-0.1,5.2c0,0,2.5,3,5,0
		l0-0.5L485.2,123.8z"/>
	<polygon class="st9" points="484.2,123.2 481.3,129.8 480.8,129.5 483.7,122.9 	"/>
	<polygon class="st9" points="483.6,122.9 483.5,122.8 480.7,129 480.8,129.1 	"/>
	
		<linearGradient id="SVGID_28_" gradientUnits="userSpaceOnUse" x1="159.46" y1="126.5498" x2="164.4159" y2="126.5498" gradientTransform="matrix(-1 0 0 1 657.8333 0)">
		<stop  offset="0" style="stop-color:#FFD45A"/>
		<stop  offset="1" style="stop-color:#FA3955"/>
	</linearGradient>
	<path class="st31" d="M498.3,123.8c0,0-1.1-1.2-2.6-1.1c-0.3,0-0.5,0.1-0.8,0.2c-0.5,0.2-0.9,0.5-1.4,1.1l-0.1,5.2c0,0,2.5,3,5,0
		l0-0.5L498.3,123.8z"/>
	<polygon class="st9" points="497.3,123.2 494.4,129.8 493.9,129.5 496.8,122.9 	"/>
	<polygon class="st9" points="496.7,122.9 496.6,122.8 493.8,129 493.9,129.1 	"/>
	
		<linearGradient id="SVGID_29_" gradientUnits="userSpaceOnUse" x1="146.3655" y1="126.5498" x2="151.3214" y2="126.5498" gradientTransform="matrix(-1 0 0 1 657.8333 0)">
		<stop  offset="0" style="stop-color:#FFD45A"/>
		<stop  offset="1" style="stop-color:#FA3955"/>
	</linearGradient>
	<path class="st32" d="M511.4,123.8c0,0-1.1-1.2-2.6-1.1c-0.3,0-0.5,0.1-0.8,0.2c-0.5,0.2-0.9,0.5-1.4,1.1l-0.1,5.2c0,0,2.5,3,5,0
		l0-0.5L511.4,123.8z"/>
	<polygon class="st9" points="510.4,123.2 507.5,129.8 507,129.5 509.9,122.9 	"/>
	<polygon class="st9" points="509.8,122.9 509.7,122.8 506.9,129 507,129.1 	"/>
	
		<linearGradient id="SVGID_30_" gradientUnits="userSpaceOnUse" x1="133.2711" y1="126.5498" x2="138.2269" y2="126.5498" gradientTransform="matrix(-1 0 0 1 657.8333 0)">
		<stop  offset="0" style="stop-color:#FFD45A"/>
		<stop  offset="1" style="stop-color:#FA3955"/>
	</linearGradient>
	<path class="st33" d="M524.5,123.8c0,0-1.1-1.2-2.6-1.1c-0.3,0-0.5,0.1-0.8,0.2c-0.5,0.2-0.9,0.5-1.4,1.1l-0.1,5.2c0,0,2.5,3,5,0
		l0-0.5L524.5,123.8z"/>
	<polygon class="st9" points="523.5,123.2 520.6,129.8 520.1,129.5 523,122.9 	"/>
	<polygon class="st9" points="522.9,122.9 522.8,122.8 520,129 520.1,129.1 	"/>
</g>
<g id="OMBRES">
	<path class="st34" d="M628.7,143.3c0,0-44,11.9-161.4,12.4l-3.3,2.5l-15.5-0.1v14.1c0,0,102,1.8,137.3-5.3
		C585.8,167,631.2,157.2,628.7,143.3z"/>
	<path class="st34" d="M426.7,149.7l-30.6,30.9c0,0-21.8-2.5-29.1-7.5L426.7,149.7z"/>
	<polygon class="st34" points="339.7,148.4 331.7,150.2 272.4,193.9 277.4,193.7 	"/>
	<path class="st34" d="M173.7,157.1c0,0,47.1,13.8,70.2,14.7l58.9-0.2l20.6-14.2L173.7,157.1z"/>
	<polygon class="st34" points="78.9,128 102.2,104.4 59.3,120.8 	"/>
	<polygon class="st34" points="51.7,104 48,104 14,129.5 17.3,129.5 	"/>
	<polygon class="st34" points="45,72.8 31.7,63.5 42.6,62.5 46,74 	"/>
</g>
<g id="Calque_1" class="st0">
</g>
</svg>
