<?xml version="1.0" encoding="utf-8"?>
<!-- Generator: Adobe Illustrator 22.0.1, SVG Export Plug-In . SVG Version: 6.00 Build 0)  -->
<svg version="1.1" id="Capa_1" xmlns="http://www.w3.org/2000/svg" xmlns:xlink="http://www.w3.org/1999/xlink" x="0px" y="0px"
	 viewBox="0 0 512 512" style="enable-background:new 0 0 512 512;" xml:space="preserve">
<style type="text/css">
	.st0{fill:#FFFFFF;}
</style>
<g>
	<path class="st0" d="M256,507c138.4,0,251-116.5,251-259.6c0-67-25.1-131.1-69.5-179.2c0,0,6.5-15,14.5-33.6
		c8-18.6-3.5-31.6-25.7-29.3L296.4,19.4c-22.2,2.4-29.5,19.5-16.4,38.1l76.7,109.3c13.1,18.7,29.3,20.9,36.1,5l12.4-28.8
		c20,30.6,31.1,66.8,31.1,104.4c0,102.9-80.9,186.6-180.3,186.6c-99.5,0-180.4-83.7-180.4-186.6c0-32.4,8.1-64.3,23.6-92.3
		c9.7-17.5,3.8-39.8-13.2-49.8c-17-10-38.5-3.9-48.2,13.6C16.4,157.8,5,202.3,5,247.4C5,390.5,117.6,507,256,507z"/>
</g>
</svg>
