<?xml version="1.0" encoding="utf-8"?>
<!-- Generator: Adobe Illustrator 22.0.1, SVG Export Plug-In . SVG Version: 6.00 Build 0)  -->
<svg version="1.1" xmlns="http://www.w3.org/2000/svg" xmlns:xlink="http://www.w3.org/1999/xlink" x="0px" y="0px"
	 viewBox="0 0 1000 160" style="enable-background:new 0 0 1000 160;" xml:space="preserve">
<style type="text/css">
	.st0{fill:#FFFFFF;}
	.st1{fill:#F11B93;}
</style>
<g id="Calque_3">
</g>
<g id="LOGO_COULEUR">
	<path class="st0" d="M111.4,68.5c0,0,2.1-2.3,1.6-3.4s-3.6-7.5-18.7-10.1s-74.9,0-74.9,0s-13,2.3-14.8,11.1s0,24.4,0,24.4
		s3.1,8.3,11.1,9.1c8,0.8,76.7,1,76.7,1s1.6,0.5,1.8,2.9c0.3,2.3,0.3,13.5,0.3,13.5s-1.3,1.8-2.6,2.1c-1.3,0.3-88.2,0-88.2,0
		s-3.4,0.3-3.4,1.6c0,1.3,1.9,10.2,12.3,11.9c10.4,1.8,87.4,1.8,92.3,0c4.9-1.8,7-2.1,10.4-9.3c1-7.3,1.3-22.8,0-26.2
		c-1.3-3.4-1.3-10.9-19.4-11.1c-18.1-0.3-68.4,0-68.4,0l-1.8-2.3l-0.8-12l2.9-2.8L111.4,68.5z"/>
	<path class="st0" d="M244.4,55.2c-13.1,0-93.4,0-93.4,0l-3.3,3.5V134l23.7-0.1l-0.3-28.3l3.3-3.4h71.8c0,0,8.9-0.2,12.2-8.3
		c1.8-6.1,1.8-26.6,1.8-26.6S257.5,55.2,244.4,55.2z M236.6,86c0,0-1.5,3.1-4.8,3.1c-3.3,0-57.8,0-57.8,0l-2.2-2.6V70.1l1.9-1.8H232
		c0,0,4.4,1.5,4.6,6.1S236.6,86,236.6,86z"/>
	<polygon class="st0" points="304.1,68.3 315.9,55.2 375.4,134 348.5,134.3 337.7,118.5 333,116.4 265.8,116.1 277.6,102.3 
		321.9,102.7 324,100 	"/>
	<rect x="549.7" y="55.1" class="st0" width="106.8" height="14.4"/>
	<polygon class="st0" points="620.5,81.4 549.4,81.4 549.4,134 656.6,134 656.4,120.1 575.9,120.5 573.4,118.8 573.4,96.8 576,94.6 
		620.5,94.6 	"/>
	<polygon class="st0" points="687.2,58.9 688.8,55.2 724.5,55.2 750.2,73.8 726,87.5 	"/>
	<polygon class="st0" points="757.2,107.7 776,93.1 827.3,129.9 827.3,134 792.3,134.3 756.1,108.7 	"/>
	<path class="st1" d="M687.2,134l-2.3-5.3c0,0,116.2-109.4,315.1-119.7c-61.1,6.5-205.8,44.2-281.3,125.4L687.2,134z"/>
	<path class="st0" d="M515.9,69.3c0,0,2.1-8.1-12.1-14.2c-16.4,0-84.6,0-84.6,0s-14.8,1.4-15.7,14.3c-0.9,12.9,0,53.6,0,53.6
		s1.7,10.2,16.4,10.2c14.6,0,79.2,0.7,79.2,0.7s17-1.2,16.3-14.8c-11.4,0-85.8-0.2-85.8-0.2l-2.8-2.4V70.5l2.7-1.8L515.9,69.3z"/>
</g>
</svg>
